<?xml version="1.0" encoding="iso-8859-1"?>
<!-- Generator: Adobe Illustrator 19.2.0, SVG Export Plug-In . SVG Version: 6.00 Build 0)  -->
<svg version="1.1" id="Layer_1" xmlns="http://www.w3.org/2000/svg" xmlns:xlink="http://www.w3.org/1999/xlink" x="0px" y="0px"
	 viewBox="0 0 1024 768" style="enable-background:new 0 0 1024 768;" xml:space="preserve">
<path style="fill:#C82257;" d="M1024,2v433.741l-487.631,97.294c-18.354,3.662-37.252,3.638-55.596-0.072L0,435.741V2H1024z"/>
<g style="opacity:0.87;">
	<line style="fill:#534741;" x1="370" y1="284" x2="654" y2="284"/>
	<g>
		<g>
			<path style="opacity:0.1091;fill:#ED1E79;" d="M383.206,295.348c47.205,0.033,94.411,0.093,141.618,0.091
				c47.27-0.002,94.548-0.21,141.817,0.058c-0.172-0.644-0.538-1.177-1.097-1.599c-1.665-1.709-3.364-3.384-5.098-5.024
				c-1.715-1.66-3.463-3.284-5.244-4.872c-0.446-0.54-0.995-0.882-1.645-1.025c-4.041-0.16-8.084-0.367-12.127-0.455
				c-4.929-0.107-9.83-0.018-14.755,0.187c-6.336,0.263-12.638,0.173-18.98,0.121c-31.849-0.258-63.701-0.26-95.55-0.251
				c-16.335,0.005-32.669,0.026-49.004,0.075c-8.287,0.025-16.574,0.059-24.861,0.111c-7.385,0.046-14.788,0.211-22.171-0.077
				c-3.138-0.307-6.28-0.405-9.426-0.295c-3.042,0.038-6.084,0.077-9.126,0.117c-4.798,0.046-9.564,0.138-14.354-0.2
				c-3.858-0.272-7.72-0.48-11.582-0.693c0.1,0.654,0.403,1.219,0.911,1.695c1.462,1.862,2.961,3.694,4.498,5.494
				c1.516,1.818,3.069,3.604,4.659,5.358C382.072,294.746,382.578,295.14,383.206,295.348z"/>
			<path style="opacity:0.1091;fill:#ED1E79;" d="M380.915,291.823c15.23,0.192,30.457,0.124,45.688,0.223
				c31.971,0.207,63.949-0.022,95.921-0.024c31.927-0.002,63.853-0.003,95.78,0.047c15.334,0.024,30.666-0.078,46,0.031
				c-0.103-0.59-0.403-1.083-0.899-1.478c-1.425-1.567-2.886-3.1-4.382-4.599c-1.477-1.519-2.987-3.003-4.532-4.452
				c-0.388-0.502-0.876-0.809-1.465-0.922c-4.044-0.14-8.09-0.323-12.135-0.411c-4.921-0.107-9.805-0.046-14.724,0.144
				c-6.338,0.245-12.648,0.165-18.991,0.12c-31.853-0.225-63.709-0.226-95.563-0.219c-16.332,0.004-32.664,0.021-48.996,0.062
				c-8.283,0.021-16.567,0.046-24.85,0.092c-7.397,0.041-14.82,0.23-22.215-0.034c-3.132-0.292-6.267-0.387-9.407-0.287
				c-3.039,0.033-6.079,0.066-9.118,0.101c-4.821,0.056-9.616,0.169-14.432-0.108c-3.876-0.223-7.753-0.434-11.63-0.646
				c0.039,0.591,0.284,1.106,0.734,1.544c1.245,1.68,2.528,3.33,3.85,4.95c1.301,1.637,2.639,3.243,4.014,4.818
				C379.895,291.31,380.345,291.659,380.915,291.823z"/>
			<path style="opacity:0.1091;fill:#ED1E79;" d="M379.208,296.942c47.222,0.27,94.446,0.134,141.669,0.132
				c47.274-0.002,94.555-0.22,141.827,0.063c-0.255-0.582-0.681-1.024-1.279-1.326c-1.837-1.32-3.701-2.6-5.593-3.84
				c-1.877-1.263-3.78-2.484-5.71-3.664c-0.51-0.434-1.083-0.655-1.718-0.664c-4.099-0.139-8.201-0.321-12.302-0.404
				c-4.902-0.1-9.774-0.035-14.673,0.152c-6.319,0.241-12.613,0.159-18.938,0.114c-31.883-0.223-63.767-0.226-95.65-0.218
				c-16.324,0.004-32.648,0.022-48.972,0.064c-8.272,0.021-16.543,0.048-24.815,0.094c-7.4,0.041-14.819,0.207-22.216-0.048
				c-3.174-0.283-6.352-0.375-9.533-0.276c-3.026,0.034-6.052,0.068-9.078,0.103c-4.83,0.05-9.632,0.143-14.456-0.143
				c-3.961-0.235-7.923-0.442-11.885-0.65c0.201,0.596,0.584,1.067,1.15,1.413c1.702,1.45,3.436,2.862,5.2,4.237
				c1.747,1.396,3.524,2.753,5.331,4.072C378.035,296.622,378.582,296.885,379.208,296.942z"/>
			<path style="opacity:0.1091;fill:#ED1E79;" d="M380.877,303.023c94.569,0.566,189.145-0.17,283.715,0.144
				c0.649,0.082,0.705-0.063,0.167-0.436c-1.284-0.716-2.621-1.315-4.013-1.799c-2.619-1.042-5.25-2.052-7.894-3.029
				c-1.358-0.571-2.754-1.02-4.187-1.347c-4.155-0.109-8.311-0.251-12.467-0.309c-4.878-0.068-9.744-0.008-14.619,0.133
				c-6.299,0.181-12.584,0.115-18.887,0.08c-31.912-0.176-63.825-0.18-95.737-0.173c-16.316,0.004-32.632,0.019-48.948,0.053
				c-15.659,0.033-31.346,0.421-47.001,0.018c-6.252-0.161-12.438-0.155-18.692-0.12c-4.838,0.027-9.659,0.073-14.493-0.165
				c-4.093-0.201-8.186-0.388-12.28-0.574c-0.637-0.12-0.702,0.021-0.194,0.424c1.224,0.789,2.509,1.465,3.855,2.029
				c2.525,1.193,5.064,2.354,7.618,3.483C378.128,302.084,379.48,302.613,380.877,303.023z"/>
			<path style="opacity:0.1091;fill:#ED1E79;" d="M383.351,292.022c47.194,0.427,94.396,0.162,141.592,0.16
				c47.257-0.002,94.524-0.242,141.78,0.071c-0.045-0.576-0.293-1.072-0.744-1.488c-1.251-1.601-2.54-3.171-3.866-4.71
				c-1.306-1.557-2.648-3.082-4.027-4.574c-0.338-0.512-0.788-0.837-1.349-0.974c-4.027-0.135-8.055-0.31-12.083-0.394
				c-4.926-0.103-9.819-0.042-14.742,0.139c-6.342,0.233-12.658,0.157-19.005,0.114c-31.844-0.217-63.69-0.217-95.535-0.21
				c-16.335,0.004-32.669,0.02-49.004,0.059c-8.287,0.02-16.574,0.045-24.861,0.088c-7.396,0.039-14.819,0.222-22.213-0.031
				c-3.119-0.279-6.242-0.37-9.369-0.274c-3.043,0.031-6.086,0.063-9.129,0.095c-4.816,0.052-9.607,0.161-14.419-0.105
				c-3.844-0.212-7.69-0.4-11.535-0.589c-0.023,0.571,0.165,1.086,0.563,1.545c1.051,1.709,2.143,3.392,3.276,5.048
				c1.11,1.672,2.26,3.315,3.451,4.93C382.406,291.462,382.813,291.829,383.351,292.022z"/>
			<path style="opacity:0.1091;fill:#ED1E79;" d="M380.432,289.15c15.285,0.896,30.598,0.509,45.904,0.605
				c31.978,0.2,63.965-0.034,95.944-0.036c31.923-0.001,63.846-0.003,95.769,0.048c15.329,0.024,30.655-0.072,45.985,0.037
				c0.006-0.484-0.185-0.899-0.576-1.245c-1.033-1.288-2.103-2.545-3.21-3.771c-1.087-1.244-2.209-2.454-3.367-3.631
				c-0.298-0.428-0.687-0.667-1.169-0.718c-4.055-0.107-8.11-0.248-12.165-0.329c-4.906-0.098-9.771-0.074-14.676,0.087
				c-6.338,0.208-12.656,0.144-18.998,0.109c-31.861-0.176-63.723-0.176-95.584-0.171c-16.329,0.002-32.657,0.015-48.986,0.045
				c-8.278,0.015-16.556,0.033-24.834,0.067c-7.414,0.03-14.863,0.233-22.276,0.016c-3.125-0.255-6.253-0.343-9.384-0.262
				c-3.032,0.023-6.064,0.046-9.095,0.069c-4.851,0.059-9.683,0.181-14.532-0.01c-4.1-0.161-8.132-0.729-12.199-1.247
				c-0.052,0.488,0.101,0.927,0.459,1.315c0.913,1.41,1.865,2.792,2.859,4.146c0.971,1.371,1.981,2.712,3.029,4.023
				C379.585,288.761,379.953,289.045,380.432,289.15z"/>
			<path style="opacity:0.1091;fill:#ED1E79;" d="M381.013,288.505c15.165-0.111,30.334-0.048,45.499,0.025
				c31.987,0.154,63.98-0.041,95.968-0.042c47.246-0.001,94.498-0.189,141.743,0.076c0.088-0.367-0.013-0.697-0.305-0.99
				c-0.701-0.978-1.442-1.926-2.22-2.845c-0.59-0.712-2.104-3.173-3.298-3.194c-4.08-0.072-8.159-0.164-12.239-0.23
				c-4.885-0.079-9.733-0.089-14.618,0.034c-6.333,0.16-12.655,0.114-18.991,0.089c-31.873-0.125-63.747-0.123-95.621-0.121
				c-16.324,0.001-32.648,0.01-48.972,0.029c-8.272,0.01-16.543,0.024-24.815,0.044c-7.434,0.018-14.901,0.208-22.334,0.051
				c-6.164-0.13-12.278-0.25-18.446-0.185c-4.88,0.051-9.75,0.159-14.631,0.048c-3.982-0.09-7.95-0.351-11.925-0.596
				c-0.425-0.026,2.279,4.323,2.185,4.182C378.403,285.496,379.905,288.513,381.013,288.505z"/>
			<path style="opacity:0.1091;fill:#ED1E79;" d="M381.373,296.536c47.218,0.109,94.437,0.111,141.656,0.109
				c47.275-0.002,94.556-0.206,141.83,0.055c-0.282-0.663-0.743-1.192-1.385-1.585c-1.996-1.665-4.023-3.291-6.081-4.88
				c-2.041-1.61-4.111-3.182-6.21-4.714c-0.537-0.527-1.162-0.847-1.874-0.959c-4.067-0.165-8.138-0.378-12.207-0.466
				c-4.92-0.107-9.813-0.013-14.728,0.198c-6.328,0.271-12.622,0.176-18.957,0.123c-31.863-0.266-63.729-0.269-95.593-0.259
				c-16.331,0.005-32.661,0.027-48.992,0.079c-8.281,0.026-16.562,0.063-24.843,0.116c-7.388,0.048-14.788,0.202-22.173-0.091
				c-3.158-0.311-6.32-0.41-9.486-0.297c-3.036,0.04-6.072,0.081-9.107,0.123c-4.805,0.043-9.576,0.128-14.372-0.226
				c-3.91-0.288-7.822-0.519-11.735-0.756c0.215,0.683,0.623,1.248,1.222,1.696c1.82,1.83,3.674,3.625,5.563,5.384
				c1.869,1.78,3.772,3.523,5.707,5.231C380.09,295.989,380.678,296.362,381.373,296.536z"/>
			<path style="opacity:0.1091;fill:#ED1E79;" d="M379.167,291.315c15.242,0.343,30.482,0.189,45.727,0.286
				c31.975,0.203,63.959-0.034,95.935-0.035c31.926-0.001,63.853-0.003,95.779,0.048c15.332,0.024,30.661-0.072,45.993,0.037
				c-0.043-0.491-0.278-0.894-0.704-1.208c-1.168-1.216-2.371-2.398-3.609-3.544c-1.218-1.167-2.469-2.297-3.753-3.391
				c-0.34-0.407-0.756-0.617-1.248-0.631c-4.074-0.111-8.148-0.258-12.222-0.34c-4.902-0.1-9.762-0.074-14.664,0.092
				c-6.331,0.215-12.642,0.148-18.978,0.112c-31.871-0.182-63.743-0.182-95.614-0.178c-16.326,0.002-32.652,0.016-48.978,0.047
				c-8.274,0.016-16.549,0.034-24.823,0.07c-7.412,0.031-14.858,0.236-22.269,0.013c-3.141-0.263-6.285-0.353-9.433-0.27
				c-3.028,0.024-6.056,0.049-9.084,0.074c-4.849,0.06-9.679,0.181-14.527-0.018c-4.027-0.165-8.032-0.526-12.047-0.865
				c-0.001,0.496,0.197,0.922,0.595,1.278c1.058,1.333,2.154,2.634,3.287,3.903c1.113,1.288,2.261,2.543,3.446,3.764
				C378.278,291,378.675,291.252,379.167,291.315z"/>
			<path style="opacity:0.1091;fill:#ED1E79;" d="M383.086,287.853c15.147-0.283,30.309-0.142,45.458-0.077
				c31.989,0.137,63.983-0.038,95.972-0.038c47.244-0.001,94.494-0.176,141.737,0.069c0.468,0.002-2.249-4.081-2.151-3.941
				c-0.461-0.657-1.854-3.346-2.973-3.364c-4.07-0.066-8.139-0.151-12.209-0.212c-11.208-0.168-22.413,0.153-33.624,0.112
				c-31.868-0.115-63.737-0.113-95.605-0.111c-16.325,0.001-32.65,0.009-48.976,0.027c-8.274,0.009-16.547,0.022-24.821,0.04
				c-7.439,0.016-14.906,0.193-22.344,0.049c-6.152-0.12-12.262-0.231-18.418-0.172c-4.883,0.047-9.758,0.146-14.642,0.043
				c-3.932-0.082-7.857-0.265-11.786-0.439c-0.506-0.022,1.831,4.395,1.75,4.247C380.746,284.619,382.06,287.872,383.086,287.853z"
				/>
			<path style="opacity:0.1091;fill:#ED1E79;" d="M380.627,300.284c94.545,0.579,189.098-0.221,283.644,0.159
				c-0.38-0.597-0.914-1.031-1.602-1.301c-2.208-1.269-4.441-2.495-6.696-3.679c-2.243-1.208-4.508-2.372-6.795-3.493
				c-0.609-0.419-1.268-0.62-1.975-0.6c-4.122-0.142-8.246-0.325-12.37-0.4c-4.894-0.09-9.77-0.011-14.66,0.171
				c-6.311,0.234-12.597,0.15-18.913,0.105c-31.893-0.227-63.789-0.232-95.683-0.223c-16.322,0.005-32.643,0.024-48.965,0.068
				c-15.655,0.042-31.359,0.548-47.007,0.022c-3.194-0.269-6.391-0.355-9.591-0.257c-3.021,0.035-6.042,0.07-9.063,0.106
				c-4.827,0.037-9.626,0.101-14.446-0.203c-4.023-0.254-8.047-0.481-12.071-0.709c0.329,0.62,0.824,1.089,1.485,1.408
				c2.088,1.419,4.202,2.797,6.344,4.135c2.127,1.361,4.279,2.68,6.456,3.957C379.29,300.008,379.926,300.254,380.627,300.284z"/>
			<path style="opacity:0.1091;fill:#ED1E79;" d="M380.252,293.938c47.203,0.304,94.409,0.153,141.614,0.151
				c31.931-0.002,63.861-0.002,95.792,0.045c15.338,0.023,30.673-0.078,46.011,0.027c-0.195-0.626-0.577-1.132-1.148-1.519
				c-1.714-1.596-3.46-3.155-5.239-4.678c-1.761-1.544-3.553-3.05-5.377-4.519c-0.464-0.509-1.02-0.816-1.667-0.92
				c-4.059-0.152-8.12-0.35-12.181-0.44c-4.919-0.109-9.805-0.033-14.721,0.168c-6.332,0.259-12.633,0.172-18.971,0.123
				c-31.86-0.244-63.723-0.246-95.584-0.238c-16.331,0.004-32.661,0.024-48.992,0.069c-8.281,0.023-16.562,0.053-24.843,0.103
				c-7.393,0.045-14.807,0.221-22.197-0.058c-3.147-0.304-6.298-0.402-9.454-0.294c-3.037,0.037-6.074,0.074-9.11,0.112
				c-4.815,0.052-9.6,0.155-14.409-0.157c-3.893-0.253-7.788-0.466-11.682-0.682c0.131,0.636,0.46,1.171,0.988,1.606
				c1.541,1.731,3.117,3.43,4.73,5.095c1.593,1.684,3.22,3.334,4.882,4.949C379.102,293.427,379.623,293.779,380.252,293.938z"/>
		</g>
	</g>
</g>
<g>
	<path style="fill:#FFFFFF;" d="M437.926,274.219c0,4.184-0.144,6.829-0.431,7.937c-0.123,0.492-2.912,1.077-8.367,1.753
		c-9.413,1.169-15.166,1.753-17.257,1.753c-3.691,0-6.717-0.78-9.075-2.338c-2.789-1.825-4.184-4.491-4.184-7.998
		c0-2.44,1.046-5.28,3.138-8.521c0.697-1.087,1.179-1.63,1.446-1.63c0.123,0,0.185,0.144,0.185,0.431
		c0,0.369-0.082,0.872-0.246,1.507c-0.267,1.026-0.4,2.051-0.4,3.076c0,5.188,4.071,7.783,12.212,7.783
		c5.126,0,11.29-0.554,18.488-1.661c-0.574-2.133-2.266-4.655-5.076-7.567l4.399-5.845c0.226-0.287,0.481-0.277,0.769,0.031
		C436.459,265.965,437.926,269.728,437.926,274.219z M417.562,264.437l-6.275,6.398l-8.152-6.429l6.122-6.306L417.562,264.437z
		 M431.066,263.976l-6.275,6.398l-8.152-6.429l6.122-6.306L431.066,263.976z"/>
	<path style="fill:#FFFFFF;" d="M460.443,277.418c0,2.543-0.051,3.938-0.154,4.184c-0.451,1.107-4.071,1.661-10.859,1.661
		c-1.026,0-2.574-0.087-4.645-0.262c-2.072-0.174-3.62-0.261-4.645-0.261h-3.076c-1.23,0-1.846-0.615-1.846-1.846v-6.091h4.737
		c1.046,0,2.615,0.062,4.707,0.185s3.661,0.185,4.707,0.185c2.481,0,4.234-0.164,5.26-0.492c-0.78-2.44-2.082-4.778-3.907-7.014
		l3.938-6.337c0.308-0.492,0.615-0.523,0.923-0.092C458.823,265.709,460.443,271.102,460.443,277.418z M454.014,259.915
		l-6.275,6.398l-8.152-6.429l6.122-6.306L454.014,259.915z"/>
	<path style="fill:#FFFFFF;" d="M491.943,279.08c0,4.757-1.405,9.352-4.214,13.781c-3.056,4.819-6.604,7.229-10.644,7.229
		c-2.318,0-4.779-0.984-7.383-2.953c-2.133-1.62-4.03-3.568-5.691-5.845c-0.328-0.451-0.492-0.811-0.492-1.077
		c0-0.205,0.112-0.308,0.338-0.308c0.287,0,0.687,0.164,1.2,0.492c2.338,1.477,5.065,2.215,8.183,2.215
		c3.076,0,5.922-0.877,8.536-2.63c2.615-1.754,4.507-4.056,5.676-6.906c-8.08-0.533-12.12-2.942-12.12-7.229
		c0-2.542,0.789-5.537,2.369-8.982c1.825-3.999,3.804-5.999,5.937-5.999c1.374,0,3.015,1.303,4.922,3.907
		c2.256,3.076,3.384,6.471,3.384,10.182V279.08z M487.114,274.958c-0.554-1.127-1.251-2.215-2.092-3.261
		c-1.149-1.435-2.123-2.153-2.922-2.153c-1.046,0-2.01,1.077-2.892,3.23C481.423,274.23,484.058,274.958,487.114,274.958z"/>
	<path style="fill:#FFFFFF;" d="M513.384,271.174c0,5.106-0.522,8.48-1.568,10.121c-0.8,1.251-3.814,1.876-9.044,1.876
		c-1.046,0-2.615-0.072-4.707-0.215c-2.092-0.144-3.661-0.215-4.707-0.215h-2.215c-1.21,0-1.815-0.615-1.815-1.846v-6.091h2.03
		c1.702,0,4.26,0.103,7.675,0.308c3.414,0.205,5.972,0.308,7.675,0.308c-3.527-1.435-6.04-2.656-7.537-3.661
		c-2.133-1.435-3.199-2.953-3.199-4.553c0-1.538,1.138-3.865,3.415-6.983c2.338-3.219,4.245-4.83,5.722-4.83
		c1.846,0,3.63,1.436,5.353,4.307C512.41,262.94,513.384,266.765,513.384,271.174z M511.723,249.364l-6.275,6.398l-8.152-6.429
		l6.122-6.306L511.723,249.364z M509.877,269.974c-0.636-2.256-1.426-4.245-2.369-5.968c-1.189-2.173-2.307-3.261-3.353-3.261
		c-1.62,0-3.281,1.23-4.983,3.691C501.653,266.017,505.222,267.862,509.877,269.974z"/>
	<path style="fill:#FFFFFF;" d="M555.65,282.771h-3.753c-1.661,0-2.912-0.854-3.753-2.563c-0.554-1.131-1.087-3.169-1.6-6.112
		c-1.415,3.384-2.44,5.168-3.076,5.353c-2.563,0-4.911-0.472-7.044-1.415c-2.42-1.066-3.63-2.41-3.63-4.03
		c0-0.943,0.573-2.625,1.723-5.045c1.21-2.542,2.286-4.153,3.229-4.83c0.39-0.266,1.559-0.8,3.507-1.6l4.245-1.723l-0.185-2.953
		c0.943-1.004,2.235-2.235,3.876-3.691c0.267,0.801,0.615,5.956,1.046,15.465c0.103,2.342,0.339,3.82,0.708,4.437
		c0.308,0.513,0.974,0.77,1.999,0.77h2.707V282.771z M546.36,272.004c-0.041-1.148-0.164-3.711-0.369-7.69
		c-4.122,1.272-6.85,2.892-8.183,4.86C539.634,271.062,542.484,272.004,546.36,272.004z"/>
	<path style="fill:#FFFFFF;" d="M577.184,277.418c0,2.543-0.051,3.938-0.153,4.184c-0.451,1.107-4.071,1.661-10.859,1.661
		c-1.025,0-2.573-0.087-4.645-0.262c-2.072-0.174-3.62-0.261-4.646-0.261h-3.076c-1.23,0-1.846-0.615-1.846-1.846v-6.091h4.737
		c1.046,0,2.615,0.062,4.707,0.185s3.66,0.185,4.706,0.185c2.481,0,4.234-0.164,5.261-0.492c-0.78-2.44-2.082-4.778-3.907-7.014
		l3.938-6.337c0.308-0.492,0.615-0.523,0.923-0.092C575.563,265.709,577.184,271.102,577.184,277.418z M570.755,259.915
		l-6.275,6.398l-8.152-6.429l6.122-6.306L570.755,259.915z"/>
	<path style="fill:#FFFFFF;" d="M594.688,282.771h-4.553c-2.072,0-3.559-0.78-4.461-2.34c-0.636-1.128-1.035-2.843-1.199-5.142
		l-1.661-24.752l4.829-4.526c0.144-0.123,0.369-0.267,0.677-0.431c0.185,0,0.287,0.267,0.308,0.801l0.893,23.958
		c0.041,0.965,0.215,2.146,0.522,3.542c0.41,0.636,1.477,0.955,3.199,0.955h1.446V282.771z"/>
	<path style="fill:#FFFFFF;" d="M630.986,281.448c0,0.8-0.574,1.241-1.723,1.323c-0.492,0.02-1.907,0.072-4.245,0.154
		c-0.205,0-2.267,0.123-6.184,0.369c-2.358,0.143-3.988,0.215-4.891,0.215c-1.928,0-4.83-0.128-8.706-0.385
		s-6.778-0.384-8.705-0.384h-3.691c-1.23,0-1.846-0.615-1.846-1.846v-6.091h4.122c1.188,0,2.969,0.118,5.337,0.354
		c2.369,0.236,4.147,0.354,5.337,0.354h13.412c-4.491-5.496-8.603-8.244-12.335-8.244c-1.128,0-2.851,0.42-5.168,1.261
		c-0.328,0.123-0.605,0.185-0.831,0.185c-0.472,0-0.707-0.195-0.707-0.584c0-0.328,0.164-0.718,0.492-1.169
		c2.502-3.425,5.506-5.137,9.013-5.137c3.056,0,6.04,1.118,8.952,3.353c0.41,0.308,2.594,2.399,6.552,6.275
		c2.297,2.235,4.234,3.353,5.814,3.353V281.448z M617.39,255.424l-6.275,6.398l-8.152-6.429l6.122-6.306L617.39,255.424z"/>
</g>
<g>
	<path style="fill:#FFFFFF;" d="M374.183,337.737c0-0.924,0.292-1.839,0.876-2.743c0.583-0.905,1.415-1.659,2.494-2.262l0.116,0.315
		l-0.083-0.324c-0.216-0.653-0.714-0.979-1.494-0.979c-0.145,0-0.36,0.025-0.647,0.075l-0.357-1.336
		c1.168-0.669,2.344-1.004,3.528-1.004c0.725,0,1.31,0.123,1.756,0.37c0.445,0.246,0.668,0.585,0.668,1.017
		c0,0.819-0.534,1.602-1.603,2.349c0.305,0.415,0.692,0.746,1.162,0.992c0.471,0.247,1.085,0.37,1.843,0.37h0.282v1.419h-0.498
		c-0.868,0-1.632-0.195-2.291-0.585c-0.658-0.391-1.206-0.884-1.644-1.482c-0.066,0.017-0.166,0.063-0.299,0.141
		c-0.769,0.459-1.358,1.003-1.768,1.631c-0.41,0.628-0.614,1.255-0.614,1.88c0,0.764,0.295,1.396,0.884,1.897
		c0.59,0.5,1.421,0.751,2.494,0.751h0.05c0.886,0,2.012-0.174,3.379-0.523l0.24,1.104c-0.481,0.227-1.083,0.426-1.805,0.598
		c-0.723,0.171-1.33,0.257-1.822,0.257c-0.786,0-1.493-0.105-2.121-0.315s-1.139-0.495-1.531-0.855
		C374.581,339.746,374.183,338.828,374.183,337.737z"/>
	<path style="fill:#FFFFFF;" d="M382.558,335.994c-0.166,0-0.297-0.07-0.395-0.212c-0.097-0.141-0.145-0.306-0.145-0.494
		s0.048-0.354,0.145-0.498c0.098-0.144,0.229-0.216,0.395-0.216h3.495v1.419H382.558z"/>
	<path style="fill:#FFFFFF;" d="M385.887,335.994c-0.166,0-0.298-0.07-0.395-0.212c-0.097-0.141-0.146-0.306-0.146-0.494
		s0.049-0.354,0.146-0.498s0.229-0.216,0.395-0.216h3.494v1.419H385.887z"/>
	<path style="fill:#FFFFFF;" d="M388.676,335.297c0-0.194,0.069-0.362,0.207-0.506c0.139-0.144,0.299-0.216,0.481-0.216h0.274
		c0.249,0,0.481-0.023,0.697-0.071c0.216-0.047,0.402-0.106,0.56-0.178c0.158-0.072,0.309-0.169,0.453-0.291
		c0.144-0.122,0.263-0.239,0.356-0.353c0.095-0.114,0.191-0.256,0.291-0.428s0.18-0.319,0.24-0.444
		c0.062-0.124,0.136-0.281,0.225-0.469c0.017-0.033,0.027-0.058,0.033-0.075c0.271-0.598,0.582-1.039,0.934-1.324
		c0.352-0.285,0.718-0.428,1.1-0.428c0.465,0,0.916,0.184,1.354,0.552c0.437,0.368,0.79,0.844,1.058,1.428
		c0.269,0.584,0.403,1.178,0.403,1.781c0,1.333-0.581,2-1.743,2c-0.266,0-0.578-0.039-0.938-0.116
		c-0.359-0.078-0.644-0.149-0.851-0.216c-0.208-0.066-0.544-0.183-1.009-0.349s-0.73-0.26-0.797-0.282
		c-0.542,0.454-1.303,0.681-2.282,0.681h-0.357c-0.171,0-0.329-0.072-0.473-0.216C388.747,335.634,388.676,335.474,388.676,335.297z
		 M392.909,334.185c0.017,0.005,0.103,0.037,0.257,0.096c0.155,0.058,0.252,0.094,0.291,0.107c0.038,0.014,0.13,0.047,0.273,0.1
		c0.145,0.053,0.246,0.087,0.308,0.104c0.061,0.017,0.153,0.044,0.277,0.083c0.125,0.039,0.225,0.066,0.299,0.083
		c0.075,0.017,0.162,0.036,0.262,0.058s0.189,0.037,0.27,0.046c0.081,0.008,0.157,0.012,0.229,0.012c0.443,0,0.664-0.18,0.664-0.54
		c0-0.199-0.077-0.481-0.232-0.847c-0.154-0.365-0.363-0.706-0.627-1.021c-0.263-0.315-0.513-0.476-0.751-0.481
		c-0.232,0-0.489,0.269-0.771,0.805c-0.083,0.149-0.206,0.382-0.37,0.697C393.123,333.803,392.997,334.035,392.909,334.185z"/>
	<path style="fill:#FFFFFF;" d="M399.815,333.247v-8.583h1.278v8.301c0,0.564,0.141,0.974,0.423,1.229s0.617,0.382,1.005,0.382
		v1.419c-0.41,0-0.775-0.053-1.096-0.158c-0.321-0.105-0.581-0.245-0.78-0.419c-0.199-0.174-0.362-0.383-0.49-0.626
		C399.929,334.359,399.815,333.844,399.815,333.247z"/>
	<path style="fill:#FFFFFF;" d="M402.347,335.994c-0.166,0-0.297-0.07-0.395-0.212c-0.097-0.141-0.145-0.306-0.145-0.494
		s0.048-0.354,0.145-0.498c0.098-0.144,0.229-0.216,0.395-0.216h3.495v1.419H402.347z"/>
	<path style="fill:#FFFFFF;" d="M405.676,335.994c-0.166,0-0.298-0.07-0.395-0.212c-0.097-0.141-0.146-0.306-0.146-0.494
		s0.049-0.354,0.146-0.498s0.229-0.216,0.395-0.216h3.494v1.419H405.676z"/>
	<path style="fill:#FFFFFF;" d="M408.685,335.778c-0.146-0.144-0.22-0.307-0.22-0.49s0.07-0.347,0.211-0.494
		c0.142-0.147,0.301-0.22,0.478-0.22h1.785c0.343,0,0.685-0.035,1.024-0.104c0.341-0.069,0.639-0.148,0.893-0.236
		c0.255-0.088,0.545-0.217,0.872-0.386c0.326-0.169,0.585-0.313,0.775-0.432c0.191-0.119,0.453-0.285,0.785-0.498
		c0.332-0.213,0.578-0.37,0.738-0.469c-0.437-0.133-0.907-0.311-1.411-0.536c-0.503-0.224-0.921-0.402-1.253-0.535
		s-0.611-0.199-0.839-0.199c-0.382,0-0.885,0.374-1.511,1.121l-0.838-0.714c0.548-0.664,0.93-1.093,1.146-1.287
		c0.415-0.371,0.854-0.556,1.319-0.556c0.305,0,0.683,0.09,1.133,0.27c0.451,0.18,0.888,0.376,1.308,0.589
		c0.421,0.213,0.945,0.41,1.573,0.59c0.628,0.18,1.246,0.27,1.855,0.27h1.146l-0.299,1.419h-0.548c-0.315,0-0.643,0.057-0.979,0.17
		c-0.338,0.113-0.661,0.263-0.972,0.448c-0.31,0.185-0.631,0.387-0.963,0.605c-0.332,0.219-0.682,0.439-1.05,0.66
		s-0.746,0.425-1.133,0.61c-0.388,0.185-0.82,0.334-1.3,0.448c-0.479,0.113-0.97,0.17-1.473,0.17h-1.769
		C408.993,335.994,408.831,335.922,408.685,335.778z M411.553,338.136l0.771-0.78c0.05-0.05,0.116-0.075,0.199-0.075
		s0.149,0.025,0.199,0.075l0.797,0.78c0.05,0.05,0.075,0.112,0.075,0.187c0,0.075-0.025,0.143-0.075,0.204l-0.797,0.764
		c-0.05,0.061-0.116,0.091-0.199,0.091s-0.149-0.03-0.199-0.091l-0.771-0.764c-0.05-0.061-0.075-0.128-0.075-0.204
		C411.478,338.248,411.503,338.186,411.553,338.136z"/>
	<path style="fill:#FFFFFF;" d="M435.708,336.899l-0.017,0.083c-0.194,0.653-0.601,1.233-1.221,1.739
		c-0.619,0.507-1.333,0.89-2.142,1.15c-0.808,0.26-1.632,0.39-2.474,0.39c-0.935,0-1.746-0.166-2.432-0.498
		c-0.747-0.371-1.259-0.896-1.536-1.577c-0.149-0.371-0.224-0.78-0.224-1.229c0-1.096,0.459-2.407,1.378-3.935l0.871,0.564
		c-0.619,1.146-0.93,2.142-0.93,2.988c0,0.526,0.133,0.961,0.398,1.308c0.266,0.346,0.604,0.589,1.013,0.73
		c0.41,0.141,0.883,0.211,1.42,0.211c0.857,0,1.714-0.166,2.569-0.498c0.854-0.332,1.468-0.742,1.838-1.229
		c0.066-0.088,0.1-0.191,0.1-0.307c0-0.232-0.156-0.468-0.469-0.706s-0.771-0.448-1.374-0.631l0.424-1.444
		c1.455,0.376,2.825,0.564,4.108,0.564v1.419c-0.924,0-1.524-0.061-1.801-0.183c0.149,0.133,0.27,0.297,0.361,0.494
		C435.662,336.502,435.708,336.7,435.708,336.899z"/>
	<path style="fill:#FFFFFF;" d="M436.306,335.289c0.011-0.183,0.087-0.347,0.228-0.494c0.142-0.147,0.301-0.22,0.478-0.22h2.308
		c1.013,0,1.52-0.429,1.52-1.287c0-0.232-0.042-0.518-0.125-0.855s-0.154-0.589-0.216-0.755c-0.061-0.166-0.16-0.432-0.299-0.797
		l1.304-0.54c0.442,1.146,0.664,2.155,0.664,3.03c0,1.749-0.949,2.623-2.848,2.623h-2.308c-0.183,0-0.346-0.072-0.489-0.216
		C436.377,335.634,436.306,335.471,436.306,335.289z M436.505,338.144l0.722-0.739c0.05-0.05,0.111-0.075,0.183-0.075
		c0.072,0,0.133,0.025,0.183,0.075l0.739,0.739c0.05,0.05,0.074,0.111,0.074,0.183s-0.024,0.133-0.074,0.183l-0.739,0.739
		c-0.05,0.05-0.11,0.075-0.183,0.075c-0.071,0-0.133-0.025-0.183-0.075l-0.722-0.739c-0.05-0.05-0.075-0.111-0.075-0.183
		S436.455,338.194,436.505,338.144z M438.63,338.144l0.722-0.739c0.05-0.05,0.111-0.075,0.183-0.075
		c0.072,0,0.133,0.025,0.183,0.075l0.739,0.739c0.05,0.05,0.074,0.111,0.074,0.183s-0.024,0.133-0.074,0.183l-0.739,0.739
		c-0.05,0.05-0.11,0.075-0.183,0.075c-0.071,0-0.133-0.025-0.183-0.075l-0.722-0.739c-0.05-0.05-0.075-0.111-0.075-0.183
		S438.58,338.194,438.63,338.144z"/>
	<path style="fill:#FFFFFF;" d="M444.64,333.247v-8.583h1.278v8.301c0,0.564,0.141,0.974,0.423,1.229s0.617,0.382,1.005,0.382v1.419
		c-0.41,0-0.775-0.053-1.096-0.158c-0.321-0.105-0.581-0.245-0.78-0.419c-0.199-0.174-0.362-0.383-0.49-0.626
		C444.753,334.359,444.64,333.844,444.64,333.247z"/>
	<path style="fill:#FFFFFF;" d="M447.171,335.994c-0.166,0-0.297-0.07-0.395-0.212c-0.097-0.141-0.145-0.306-0.145-0.494
		s0.048-0.354,0.145-0.498c0.098-0.144,0.229-0.216,0.395-0.216h3.495v1.419H447.171z"/>
	<path style="fill:#FFFFFF;" d="M450.5,335.994c-0.166,0-0.298-0.07-0.395-0.212c-0.097-0.141-0.146-0.306-0.146-0.494
		s0.049-0.354,0.146-0.498s0.229-0.216,0.395-0.216h3.494v1.419H450.5z"/>
	<path style="fill:#FFFFFF;" d="M453.505,335.778c-0.145-0.144-0.216-0.309-0.216-0.494c0-0.185,0.069-0.35,0.207-0.494
		c0.139-0.144,0.299-0.216,0.481-0.216h1.437c0.359,0,0.7-0.042,1.021-0.125c-0.774-0.564-1.162-1.22-1.162-1.967
		c0-0.669,0.266-1.325,0.797-1.967c0.277-0.327,0.581-0.601,0.913-0.822c-0.271-0.116-0.439-0.188-0.506-0.216l0.439-1.328
		c0.819,0.337,1.598,0.689,2.337,1.054c0.738,0.365,1.291,0.682,1.656,0.95c0.365,0.269,0.741,0.577,1.129,0.926
		c0.774,0.697,1.162,1.486,1.162,2.366c0,0.758-0.329,1.536-0.988,2.333c-0.104,0.133-0.393,0.199-0.863,0.199
		c-0.47,0-1.001-0.057-1.594-0.17c-0.592-0.114-1.167-0.278-1.727-0.494c-0.702,0.454-1.447,0.681-2.232,0.681h-1.818
		C453.807,335.994,453.648,335.922,453.505,335.778z M456.477,332.3c0,0.47,0.484,0.941,1.452,1.411
		c0.548-0.476,0.822-1.01,0.822-1.602c0-0.47-0.073-0.819-0.221-1.046c-0.146-0.227-0.346-0.34-0.598-0.34
		c-0.251,0-0.516,0.126-0.792,0.377c-0.277,0.252-0.484,0.572-0.623,0.959C456.49,332.154,456.477,332.234,456.477,332.3z
		 M461.116,334.55c0.255,0,0.407-0.033,0.457-0.1c0.237-0.26,0.356-0.553,0.356-0.88c0-0.708-0.661-1.486-1.983-2.333
		c0.027,0.221,0.041,0.418,0.041,0.589c0,0.841-0.266,1.627-0.797,2.357C460.004,334.428,460.646,334.55,461.116,334.55z"/>
	<path style="fill:#FFFFFF;" d="M469.649,337.862c0.266-0.31,0.398-0.647,0.398-1.013s-0.023-0.765-0.07-1.2
		c-0.047-0.434-0.159-0.978-0.336-1.631c-0.178-0.653-0.41-1.209-0.697-1.668l1.112-0.872c0.592,1.007,0.96,2.07,1.104,3.188
		c0.072,0.531,0.116,0.939,0.133,1.225c0.017,0.285,0.025,0.636,0.025,1.054c0,0.418-0.088,0.813-0.262,1.183
		c-0.175,0.371-0.411,0.686-0.71,0.946s-0.675,0.495-1.129,0.706c-0.808,0.371-1.834,0.661-3.079,0.872l-0.457-1.345
		c1.091-0.122,2.054-0.354,2.889-0.697C469.024,338.421,469.384,338.172,469.649,337.862z"/>
	<path style="fill:#FFFFFF;" d="M473.443,333.247v-8.583h1.278v8.301c0,0.564,0.141,0.974,0.423,1.229s0.617,0.382,1.005,0.382
		v1.419c-0.41,0-0.775-0.053-1.096-0.158c-0.321-0.105-0.581-0.245-0.78-0.419c-0.199-0.174-0.362-0.383-0.49-0.626
		C473.557,334.359,473.443,333.844,473.443,333.247z"/>
	<path style="fill:#FFFFFF;" d="M475.975,335.994c-0.166,0-0.297-0.07-0.395-0.212c-0.097-0.141-0.145-0.306-0.145-0.494
		s0.048-0.354,0.145-0.498c0.098-0.144,0.229-0.216,0.395-0.216h3.495v1.419H475.975z"/>
	<path style="fill:#FFFFFF;" d="M479.304,335.994c-0.166,0-0.298-0.07-0.395-0.212c-0.097-0.141-0.146-0.306-0.146-0.494
		s0.049-0.354,0.146-0.498s0.229-0.216,0.395-0.216h3.494v1.419H479.304z"/>
	<path style="fill:#FFFFFF;" d="M482.632,335.994c-0.166,0-0.297-0.07-0.395-0.212c-0.097-0.141-0.145-0.306-0.145-0.494
		s0.048-0.354,0.145-0.498c0.098-0.144,0.229-0.216,0.395-0.216h3.495v1.419H482.632z"/>
	<path style="fill:#FFFFFF;" d="M485.961,335.994c-0.166,0-0.298-0.07-0.395-0.212c-0.097-0.141-0.146-0.306-0.146-0.494
		s0.049-0.354,0.146-0.498s0.229-0.216,0.395-0.216h3.494v1.419H485.961z"/>
	<path style="fill:#FFFFFF;" d="M488.97,335.778c-0.146-0.144-0.22-0.307-0.22-0.49s0.073-0.347,0.22-0.494
		c0.146-0.147,0.309-0.22,0.485-0.22h2.084c0.841,0,1.433-0.093,1.776-0.278c0.343-0.186,0.515-0.464,0.515-0.834
		c0-0.88-0.617-1.851-1.852-2.914c-0.282-0.238-0.556-0.451-0.821-0.639c-0.188-0.127-0.543-0.36-1.063-0.697
		c0.127-0.719,0.232-1.183,0.315-1.39c0.083-0.208,0.254-0.403,0.515-0.585c0.697-0.465,1.556-0.935,2.577-1.411
		c1.021-0.476,1.999-0.863,2.935-1.162l0.539,1.303c-1.881,0.581-3.713,1.406-5.495,2.474c0.792,0.52,1.447,1.041,1.968,1.561
		c0.459,0.448,1.037,1.083,1.734,1.905c0.697,0.821,1.146,1.343,1.345,1.564c0.338,0.354,0.667,0.627,0.988,0.817
		c0.32,0.191,0.661,0.287,1.021,0.287v1.419c-0.974,0-1.771-0.288-2.391-0.863c-0.221-0.205-0.399-0.386-0.535-0.544
		c-0.136-0.157-0.312-0.377-0.527-0.66c-0.121,0.625-0.479,1.126-1.07,1.502c-0.593,0.376-1.342,0.564-2.25,0.564h-2.308
		C489.278,335.994,489.116,335.922,488.97,335.778z"/>
	<path style="fill:#FFFFFF;" d="M498.038,335.778c-0.144-0.144-0.216-0.309-0.216-0.494c0-0.185,0.069-0.35,0.208-0.494
		c0.138-0.144,0.299-0.216,0.481-0.216h1.436c0.36,0,0.7-0.042,1.021-0.125c-0.775-0.564-1.162-1.22-1.162-1.967
		c0-0.669,0.266-1.325,0.797-1.967c0.276-0.327,0.581-0.601,0.913-0.822c-0.271-0.116-0.44-0.188-0.507-0.216l0.44-1.328
		c0.818,0.337,1.598,0.689,2.337,1.054c0.738,0.365,1.29,0.682,1.655,0.95c0.365,0.269,0.742,0.577,1.129,0.926
		c0.775,0.697,1.162,1.486,1.162,2.366c0,0.758-0.329,1.536-0.987,2.333c-0.105,0.133-0.394,0.199-0.863,0.199
		c-0.471,0-1.002-0.057-1.594-0.17c-0.593-0.114-1.168-0.278-1.727-0.494c-0.703,0.454-1.447,0.681-2.233,0.681h-1.817
		C498.34,335.994,498.183,335.922,498.038,335.778z M501.01,332.3c0,0.47,0.484,0.941,1.453,1.411
		c0.548-0.476,0.821-1.01,0.821-1.602c0-0.47-0.073-0.819-0.22-1.046s-0.346-0.34-0.598-0.34s-0.516,0.126-0.793,0.377
		c-0.276,0.252-0.484,0.572-0.622,0.959C501.023,332.154,501.01,332.234,501.01,332.3z M505.65,334.55
		c0.254,0,0.406-0.033,0.456-0.1c0.238-0.26,0.357-0.553,0.357-0.88c0-0.708-0.661-1.486-1.984-2.333
		c0.028,0.221,0.042,0.418,0.042,0.589c0,0.841-0.266,1.627-0.797,2.357C504.538,334.428,505.18,334.55,505.65,334.55z"/>
	<path style="fill:#FFFFFF;" d="M510.216,335.994v-11.331h1.278v11.331H510.216z"/>
	<path style="fill:#FFFFFF;" d="M517.578,337.862c0.266-0.31,0.398-0.647,0.398-1.013s-0.023-0.765-0.07-1.2
		c-0.047-0.434-0.159-0.978-0.336-1.631c-0.178-0.653-0.41-1.209-0.697-1.668l1.112-0.872c0.592,1.007,0.96,2.07,1.104,3.188
		c0.072,0.531,0.116,0.939,0.133,1.225c0.017,0.285,0.025,0.636,0.025,1.054c0,0.418-0.088,0.813-0.262,1.183
		c-0.175,0.371-0.411,0.686-0.71,0.946s-0.675,0.495-1.129,0.706c-0.808,0.371-1.834,0.661-3.079,0.872l-0.457-1.345
		c1.091-0.122,2.054-0.354,2.889-0.697C516.953,338.421,517.313,338.172,517.578,337.862z"/>
	<path style="fill:#FFFFFF;" d="M525.174,335.566c-0.178-0.285-0.266-0.624-0.266-1.017s0.12-0.819,0.361-1.278
		c0.24-0.459,0.568-0.888,0.983-1.287l0.522,0.523c-0.133,0.144-0.237,0.26-0.315,0.349c-0.077,0.088-0.157,0.216-0.24,0.382
		s-0.125,0.324-0.125,0.473c0,0.26,0.158,0.548,0.474,0.863c0.138,0.155,0.207,0.347,0.207,0.577c0,0.23-0.086,0.428-0.257,0.594
		c-0.172,0.166-0.374,0.249-0.606,0.249C525.597,335.994,525.351,335.852,525.174,335.566z"/>
	<path style="fill:#FFFFFF;" d="M538.43,338.003l-0.017,0.033c-0.525,0.675-1.282,1.215-2.27,1.619
		c-0.988,0.404-1.997,0.606-3.026,0.606c-0.935,0-1.746-0.166-2.432-0.498c-0.747-0.371-1.259-0.896-1.536-1.577
		c-0.149-0.371-0.224-0.78-0.224-1.229c0-1.112,0.453-2.424,1.361-3.935l0.888,0.564c-0.619,1.146-0.93,2.142-0.93,2.988
		c0,0.526,0.132,0.961,0.395,1.308c0.263,0.346,0.598,0.589,1.005,0.73c0.406,0.141,0.878,0.211,1.415,0.211
		c0.88,0,1.761-0.176,2.644-0.527c0.883-0.352,1.498-0.779,1.847-1.283c0.039-0.072,0.059-0.156,0.059-0.253
		c0-0.097-0.05-0.199-0.149-0.307c-0.1-0.108-0.259-0.216-0.478-0.324c-0.219-0.107-0.405-0.193-0.561-0.257
		c-0.154-0.064-0.392-0.152-0.709-0.266c-0.318-0.114-0.522-0.187-0.61-0.22c-0.211-0.083-0.381-0.224-0.511-0.423
		s-0.195-0.468-0.195-0.805s0.133-0.742,0.398-1.212c0.438-0.792,0.929-1.426,1.474-1.905c0.545-0.479,1.092-0.718,1.64-0.718
		c0.907,0,1.674,0.647,2.299,1.942l-0.971,0.78c-0.288-0.448-0.545-0.771-0.772-0.967c-0.227-0.196-0.451-0.294-0.672-0.294
		c-0.222,0-0.454,0.094-0.697,0.282c-0.244,0.188-0.537,0.463-0.88,0.826c-0.344,0.363-0.515,0.646-0.515,0.851
		c0,0.094,0.033,0.176,0.1,0.245c0.066,0.069,0.13,0.118,0.19,0.146c0.062,0.028,0.146,0.061,0.258,0.1
		c0.797,0.282,1.342,0.503,1.635,0.664c0.803,0.432,1.204,0.952,1.204,1.561C539.086,336.907,538.867,337.422,538.43,338.003z"/>
	<path style="fill:#FFFFFF;" d="M546.291,337.862c0.266-0.31,0.398-0.647,0.398-1.013s-0.023-0.765-0.07-1.2
		c-0.048-0.434-0.159-0.978-0.337-1.631c-0.177-0.653-0.409-1.209-0.697-1.668l1.112-0.872c0.593,1.007,0.96,2.07,1.104,3.188
		c0.071,0.531,0.116,0.939,0.133,1.225c0.017,0.285,0.024,0.636,0.024,1.054c0,0.418-0.087,0.813-0.261,1.183
		c-0.175,0.371-0.411,0.686-0.71,0.946s-0.676,0.495-1.129,0.706c-0.809,0.371-1.835,0.661-3.08,0.872l-0.456-1.345
		c1.09-0.122,2.053-0.354,2.889-0.697C545.665,338.421,546.025,338.172,546.291,337.862z M546.033,329.295
		c0-0.088,0.025-0.158,0.075-0.208l0.771-0.772c0.05-0.05,0.116-0.075,0.199-0.075s0.149,0.025,0.199,0.075l0.797,0.772
		c0.05,0.05,0.075,0.119,0.075,0.208s-0.025,0.158-0.075,0.208l-0.797,0.78c-0.05,0.05-0.116,0.075-0.199,0.075
		s-0.149-0.025-0.199-0.075l-0.771-0.78C546.059,329.453,546.033,329.384,546.033,329.295z"/>
	<path style="fill:#FFFFFF;" d="M550.084,333.247v-8.583h1.278v8.301c0,0.564,0.142,0.974,0.424,1.229s0.617,0.382,1.004,0.382
		v1.419c-0.409,0-0.774-0.053-1.096-0.158c-0.32-0.105-0.581-0.245-0.78-0.419c-0.199-0.174-0.362-0.383-0.489-0.626
		C550.197,334.359,550.084,333.844,550.084,333.247z"/>
	<path style="fill:#FFFFFF;" d="M552.297,335.778c-0.147-0.144-0.221-0.307-0.221-0.49s0.071-0.347,0.212-0.494
		c0.142-0.147,0.3-0.22,0.478-0.22h1.784c0.344,0,0.686-0.035,1.025-0.104c0.341-0.069,0.638-0.148,0.893-0.236
		c0.254-0.088,0.545-0.217,0.871-0.386c0.327-0.169,0.586-0.313,0.776-0.432c0.191-0.119,0.452-0.285,0.784-0.498
		c0.332-0.213,0.578-0.37,0.739-0.469c-0.438-0.133-0.908-0.311-1.411-0.536c-0.504-0.224-0.922-0.402-1.254-0.535
		s-0.611-0.199-0.838-0.199c-0.382,0-0.886,0.374-1.511,1.121l-0.839-0.714c0.548-0.664,0.93-1.093,1.146-1.287
		c0.415-0.371,0.855-0.556,1.32-0.556c0.304,0,0.682,0.09,1.133,0.27c0.451,0.18,0.887,0.376,1.308,0.589
		c0.42,0.213,0.944,0.41,1.573,0.59c0.628,0.18,1.246,0.27,1.854,0.27h1.146l-0.299,1.419h-0.548c-0.266,0-0.578,0.05-0.938,0.149
		c0.121,0.526,0.393,0.915,0.813,1.167c0.42,0.251,1.023,0.377,1.81,0.377v1.419c-1.157,0-2.013-0.196-2.569-0.589
		c-0.556-0.393-0.909-1.032-1.059-1.917c-0.237,0.133-0.558,0.332-0.958,0.598c-0.401,0.266-0.76,0.494-1.075,0.685
		c-0.315,0.191-0.681,0.389-1.096,0.594s-0.859,0.361-1.332,0.469c-0.474,0.108-0.962,0.162-1.466,0.162h-1.768
		C552.604,335.994,552.443,335.922,552.297,335.778z M555.164,338.136l0.772-0.78c0.05-0.05,0.116-0.075,0.199-0.075
		s0.149,0.025,0.199,0.075l0.797,0.78c0.05,0.05,0.074,0.112,0.074,0.187c0,0.075-0.024,0.143-0.074,0.204l-0.797,0.764
		c-0.05,0.061-0.116,0.091-0.199,0.091s-0.149-0.03-0.199-0.091l-0.772-0.764c-0.05-0.061-0.074-0.128-0.074-0.204
		C555.09,338.248,555.114,338.186,555.164,338.136z"/>
	<path style="fill:#FFFFFF;" d="M563.93,335.994c-0.166,0-0.297-0.07-0.395-0.212c-0.097-0.141-0.145-0.306-0.145-0.494
		s0.048-0.354,0.145-0.498c0.098-0.144,0.229-0.216,0.395-0.216h3.495v1.419H563.93z"/>
	<path style="fill:#FFFFFF;" d="M567.259,335.994c-0.166,0-0.298-0.07-0.395-0.212c-0.097-0.141-0.146-0.306-0.146-0.494
		s0.049-0.354,0.146-0.498s0.229-0.216,0.395-0.216h3.494v1.419H567.259z"/>
	<path style="fill:#FFFFFF;" d="M570.587,335.994c-0.166,0-0.297-0.07-0.395-0.212c-0.097-0.141-0.145-0.306-0.145-0.494
		s0.048-0.354,0.145-0.498c0.098-0.144,0.229-0.216,0.395-0.216h3.495v1.419H570.587z"/>
	<path style="fill:#FFFFFF;" d="M573.376,335.297c0-0.194,0.069-0.362,0.208-0.506c0.138-0.144,0.299-0.216,0.481-0.216h0.273
		c0.249,0,0.481-0.023,0.697-0.071c0.216-0.047,0.403-0.106,0.561-0.178c0.158-0.072,0.309-0.169,0.452-0.291
		c0.145-0.122,0.263-0.239,0.357-0.353c0.094-0.114,0.19-0.256,0.29-0.428s0.18-0.319,0.241-0.444
		c0.061-0.124,0.136-0.281,0.224-0.469c0.017-0.033,0.028-0.058,0.033-0.075c0.271-0.598,0.583-1.039,0.935-1.324
		c0.351-0.285,0.718-0.428,1.1-0.428c0.465,0,0.916,0.184,1.353,0.552c0.438,0.368,0.79,0.844,1.059,1.428
		c0.269,0.584,0.402,1.178,0.402,1.781c0,1.333-0.581,2-1.743,2c-0.266,0-0.578-0.039-0.938-0.116
		c-0.36-0.078-0.644-0.149-0.851-0.216c-0.208-0.066-0.544-0.183-1.009-0.349s-0.73-0.26-0.797-0.282
		c-0.543,0.454-1.304,0.681-2.283,0.681h-0.356c-0.172,0-0.329-0.072-0.474-0.216C573.448,335.634,573.376,335.474,573.376,335.297z
		 M577.609,334.185c0.017,0.005,0.103,0.037,0.258,0.096c0.154,0.058,0.252,0.094,0.29,0.107c0.039,0.014,0.13,0.047,0.274,0.1
		c0.144,0.053,0.246,0.087,0.307,0.104c0.062,0.017,0.154,0.044,0.278,0.083c0.125,0.039,0.225,0.066,0.299,0.083
		c0.075,0.017,0.162,0.036,0.262,0.058s0.189,0.037,0.27,0.046c0.08,0.008,0.156,0.012,0.229,0.012c0.442,0,0.664-0.18,0.664-0.54
		c0-0.199-0.078-0.481-0.232-0.847c-0.155-0.365-0.364-0.706-0.627-1.021s-0.514-0.476-0.751-0.481c-0.232,0-0.49,0.269-0.772,0.805
		c-0.083,0.149-0.206,0.382-0.369,0.697S577.698,334.035,577.609,334.185z"/>
	<path style="fill:#FFFFFF;" d="M597.557,338.003l-0.017,0.033c-0.526,0.675-1.283,1.215-2.271,1.619
		c-0.988,0.404-1.996,0.606-3.025,0.606c-0.936,0-1.746-0.166-2.433-0.498c-0.747-0.371-1.259-0.896-1.535-1.577
		c-0.149-0.371-0.225-0.78-0.225-1.229c0-1.112,0.454-2.424,1.361-3.935l0.889,0.564c-0.62,1.146-0.93,2.142-0.93,2.988
		c0,0.526,0.131,0.961,0.394,1.308c0.264,0.346,0.598,0.589,1.005,0.73c0.406,0.141,0.879,0.211,1.415,0.211
		c0.88,0,1.762-0.176,2.644-0.527c0.883-0.352,1.499-0.779,1.848-1.283c0.038-0.072,0.058-0.156,0.058-0.253
		c0-0.097-0.05-0.199-0.149-0.307c-0.1-0.108-0.259-0.216-0.478-0.324c-0.218-0.107-0.405-0.193-0.56-0.257
		c-0.155-0.064-0.392-0.152-0.71-0.266c-0.318-0.114-0.521-0.187-0.61-0.22c-0.21-0.083-0.38-0.224-0.511-0.423
		c-0.13-0.199-0.194-0.468-0.194-0.805s0.133-0.742,0.398-1.212c0.437-0.792,0.928-1.426,1.473-1.905
		c0.546-0.479,1.092-0.718,1.64-0.718c0.908,0,1.674,0.647,2.3,1.942l-0.972,0.78c-0.287-0.448-0.545-0.771-0.771-0.967
		c-0.228-0.196-0.451-0.294-0.673-0.294c-0.221,0-0.453,0.094-0.697,0.282c-0.243,0.188-0.536,0.463-0.88,0.826
		c-0.343,0.363-0.515,0.646-0.515,0.851c0,0.094,0.033,0.176,0.1,0.245c0.066,0.069,0.13,0.118,0.191,0.146
		c0.061,0.028,0.146,0.061,0.257,0.1c0.797,0.282,1.342,0.503,1.636,0.664c0.802,0.432,1.203,0.952,1.203,1.561
		C598.212,336.907,597.993,337.422,597.557,338.003z"/>
	<path style="fill:#FFFFFF;" d="M601.449,335.994v-11.331h1.278v11.331H601.449z"/>
	<path style="fill:#FFFFFF;" d="M605.492,334.292c-0.432-0.304-0.647-0.719-0.647-1.245s0.259-1.114,0.776-1.764
		c0.517-0.65,1.232-1.238,2.146-1.764l-0.232-0.946l1.179-0.614l1.063,4.624c0.11,0.493,0.204,0.825,0.282,0.996
		c0.304,0.664,0.891,0.996,1.76,0.996v1.419c-1.367,0-2.3-0.476-2.798-1.428v0.008c-0.603,0.116-1.14,0.174-1.61,0.174
		C606.563,334.749,605.924,334.597,605.492,334.292z M606.106,332.823c0,0.171,0.104,0.304,0.312,0.398
		c0.207,0.094,0.476,0.141,0.805,0.141s0.798-0.05,1.407-0.149l-0.54-2.233C606.768,331.766,606.106,332.38,606.106,332.823z"/>
	<path style="fill:#FFFFFF;" d="M611.643,335.994c-0.166,0-0.297-0.07-0.395-0.212c-0.097-0.141-0.145-0.306-0.145-0.494
		s0.048-0.354,0.145-0.498c0.098-0.144,0.229-0.216,0.395-0.216h3.495v1.419H611.643z"/>
	<path style="fill:#FFFFFF;" d="M614.972,335.994c-0.166,0-0.298-0.07-0.395-0.212c-0.097-0.141-0.146-0.306-0.146-0.494
		s0.049-0.354,0.146-0.498s0.229-0.216,0.395-0.216h3.494v1.419H614.972z"/>
	<path style="fill:#FFFFFF;" d="M617.761,335.289c0.011-0.183,0.087-0.347,0.228-0.494c0.142-0.147,0.301-0.22,0.478-0.22h2.308
		c1.014,0,1.52-0.429,1.52-1.287c0-0.232-0.041-0.518-0.125-0.855c-0.082-0.337-0.154-0.589-0.215-0.755s-0.16-0.432-0.299-0.797
		l1.303-0.54c0.443,1.146,0.664,2.155,0.664,3.03c0,1.749-0.949,2.623-2.848,2.623h-2.308c-0.177,0-0.339-0.072-0.485-0.216
		S617.761,335.471,617.761,335.289z M619.661,327.511c-0.05-0.05-0.074-0.119-0.074-0.208s0.024-0.158,0.074-0.208l0.772-0.772
		c0.051-0.05,0.117-0.075,0.199-0.075c0.084,0,0.15,0.025,0.199,0.075l0.797,0.772c0.051,0.05,0.074,0.119,0.074,0.208
		s-0.023,0.158-0.074,0.208l-0.797,0.78c-0.049,0.05-0.115,0.075-0.199,0.075c-0.082,0-0.148-0.025-0.199-0.075L619.661,327.511z"/>
	<path style="fill:#FFFFFF;" d="M626.095,333.247v-8.583h1.278v8.301c0,0.564,0.142,0.974,0.423,1.229
		c0.283,0.254,0.617,0.382,1.005,0.382v1.419c-0.409,0-0.774-0.053-1.096-0.158s-0.581-0.245-0.78-0.419
		c-0.199-0.174-0.362-0.383-0.49-0.626C626.208,334.359,626.095,333.844,626.095,333.247z"/>
	<path style="fill:#FFFFFF;" d="M628.627,335.994c-0.166,0-0.298-0.07-0.395-0.212c-0.097-0.141-0.145-0.306-0.145-0.494
		s0.048-0.354,0.145-0.498s0.229-0.216,0.395-0.216h3.494v1.419H628.627z"/>
	<path style="fill:#FFFFFF;" d="M631.955,335.994c-0.166,0-0.298-0.07-0.395-0.212c-0.097-0.141-0.145-0.306-0.145-0.494
		s0.048-0.354,0.145-0.498s0.229-0.216,0.395-0.216h3.494v1.419H631.955z"/>
	<path style="fill:#FFFFFF;" d="M634.964,335.778c-0.146-0.144-0.22-0.307-0.22-0.49s0.07-0.347,0.211-0.494
		c0.142-0.147,0.301-0.22,0.478-0.22h1.784c0.344,0,0.686-0.035,1.025-0.104c0.341-0.069,0.638-0.148,0.893-0.236
		s0.545-0.217,0.871-0.386c0.327-0.169,0.586-0.313,0.776-0.432c0.191-0.119,0.452-0.285,0.784-0.498
		c0.332-0.213,0.579-0.37,0.739-0.469c-0.438-0.133-0.907-0.311-1.411-0.536c-0.504-0.224-0.922-0.402-1.254-0.535
		s-0.611-0.199-0.838-0.199c-0.382,0-0.886,0.374-1.511,1.121l-0.839-0.714c0.549-0.664,0.93-1.093,1.146-1.287
		c0.414-0.371,0.854-0.556,1.319-0.556c0.305,0,0.682,0.09,1.133,0.27c0.451,0.18,0.887,0.376,1.308,0.589
		c0.421,0.213,0.945,0.41,1.573,0.59c0.628,0.18,1.246,0.27,1.854,0.27h1.146l-0.299,1.419h-0.549c-0.314,0-0.642,0.057-0.979,0.17
		c-0.338,0.113-0.662,0.263-0.972,0.448c-0.31,0.185-0.631,0.387-0.963,0.605c-0.332,0.219-0.682,0.439-1.05,0.66
		s-0.746,0.425-1.133,0.61c-0.388,0.185-0.821,0.334-1.3,0.448c-0.479,0.113-0.97,0.17-1.474,0.17h-1.768
		C635.272,335.994,635.11,335.922,634.964,335.778z M637.434,327.054c-0.051-0.05-0.075-0.119-0.075-0.208s0.024-0.158,0.075-0.208
		l0.771-0.772c0.05-0.05,0.116-0.075,0.199-0.075s0.149,0.025,0.199,0.075l0.797,0.772c0.05,0.05,0.074,0.119,0.074,0.208
		s-0.024,0.158-0.074,0.208l-0.797,0.78c-0.05,0.05-0.116,0.075-0.199,0.075s-0.149-0.025-0.199-0.075L637.434,327.054z"/>
	<path style="fill:#FFFFFF;" d="M373.797,364.269l-0.017,0.083c-0.194,0.653-0.601,1.233-1.221,1.739
		c-0.619,0.507-1.333,0.89-2.142,1.15c-0.808,0.26-1.632,0.39-2.474,0.39c-0.935,0-1.746-0.166-2.432-0.498
		c-0.747-0.371-1.259-0.896-1.536-1.577c-0.149-0.371-0.224-0.78-0.224-1.229c0-1.096,0.459-2.407,1.378-3.935l0.871,0.564
		c-0.619,1.146-0.93,2.142-0.93,2.988c0,0.526,0.133,0.961,0.398,1.308c0.266,0.346,0.604,0.589,1.013,0.73
		c0.41,0.141,0.883,0.211,1.42,0.211c0.857,0,1.714-0.166,2.569-0.498c0.854-0.332,1.468-0.742,1.838-1.229
		c0.066-0.088,0.1-0.191,0.1-0.307c0-0.232-0.156-0.468-0.469-0.706s-0.771-0.448-1.374-0.631l0.424-1.444
		c1.455,0.376,2.825,0.564,4.108,0.564v1.419c-0.924,0-1.524-0.061-1.801-0.183c0.149,0.133,0.27,0.297,0.361,0.494
		C373.751,363.872,373.797,364.07,373.797,364.269z"/>
	<path style="fill:#FFFFFF;" d="M374.61,363.148c-0.145-0.144-0.216-0.307-0.216-0.49s0.071-0.347,0.216-0.494
		c0.144-0.147,0.307-0.22,0.489-0.22h1.428c0.493,0,0.89-0.121,1.191-0.361c0.302-0.241,0.497-0.549,0.585-0.926l0.407-1.743
		l1.262,0.299l-0.54,2.142c0.609,0.393,1.201,0.589,1.776,0.589c0.382,0,0.71-0.105,0.983-0.315c0.274-0.21,0.464-0.534,0.569-0.971
		l0.332-1.444l1.253,0.307l-0.432,1.801c0.481,0.415,1.038,0.623,1.669,0.623c0.476,0,0.854-0.091,1.137-0.274
		s0.424-0.445,0.424-0.789s-0.049-0.685-0.146-1.025c-0.097-0.341-0.272-0.856-0.527-1.548l1.304-0.556
		c0.243,0.708,0.413,1.282,0.51,1.723c0.098,0.439,0.146,0.887,0.146,1.34c0,0.852-0.252,1.49-0.755,1.914
		c-0.504,0.423-1.201,0.635-2.092,0.635c-0.465,0-0.919-0.08-1.361-0.241c-0.443-0.161-0.783-0.36-1.021-0.598
		c-0.542,0.559-1.239,0.838-2.092,0.838c-0.437,0-0.863-0.075-1.278-0.224s-0.769-0.362-1.063-0.639
		c-0.553,0.576-1.262,0.863-2.125,0.863H375.1C374.917,363.364,374.754,363.292,374.61,363.148z"/>
	<path style="fill:#FFFFFF;" d="M394.872,365.232c0.266-0.31,0.398-0.647,0.398-1.013s-0.023-0.765-0.07-1.2
		c-0.047-0.434-0.159-0.978-0.336-1.631c-0.178-0.653-0.41-1.209-0.697-1.668l1.112-0.872c0.592,1.007,0.96,2.07,1.104,3.188
		c0.072,0.531,0.116,0.939,0.133,1.225c0.017,0.285,0.025,0.636,0.025,1.054c0,0.418-0.088,0.813-0.262,1.183
		c-0.175,0.371-0.411,0.686-0.71,0.946s-0.675,0.495-1.129,0.706c-0.808,0.371-1.834,0.661-3.079,0.872l-0.457-1.345
		c1.091-0.122,2.054-0.354,2.889-0.697C394.247,365.791,394.606,365.542,394.872,365.232z"/>
	<path style="fill:#FFFFFF;" d="M398.666,360.617v-8.583h1.278v8.301c0,0.564,0.141,0.974,0.423,1.229s0.617,0.382,1.005,0.382
		v1.419c-0.41,0-0.775-0.053-1.096-0.158c-0.321-0.105-0.581-0.245-0.78-0.419c-0.199-0.174-0.362-0.383-0.49-0.626
		C398.779,361.729,398.666,361.214,398.666,360.617z"/>
	<path style="fill:#FFFFFF;" d="M401.197,363.364c-0.166,0-0.297-0.07-0.395-0.212c-0.097-0.141-0.145-0.306-0.145-0.494
		s0.048-0.354,0.145-0.498c0.098-0.144,0.229-0.216,0.395-0.216h3.495v1.419H401.197z"/>
	<path style="fill:#FFFFFF;" d="M403.986,362.659c0.012-0.183,0.088-0.347,0.229-0.494c0.142-0.147,0.3-0.22,0.478-0.22h3.129
		c0.394,0,0.749-0.094,1.067-0.282c0.317-0.188,0.477-0.457,0.477-0.805v-0.556c-0.658,0.155-1.167,0.232-1.527,0.232h-0.041
		c-0.869,0-1.507-0.21-1.913-0.631c-0.407-0.42-0.61-0.958-0.61-1.61c0.011-0.924,0.297-1.733,0.859-2.428
		c0.562-0.694,1.186-1.042,1.871-1.042c0.277,0,0.54,0.063,0.789,0.191s0.486,0.337,0.714,0.631c0.227,0.293,0.423,0.66,0.589,1.1
		c0.166,0.44,0.299,0.995,0.398,1.665s0.149,1.419,0.149,2.25v0.158c0,0.852-0.247,1.49-0.742,1.914
		c-0.496,0.423-1.188,0.635-2.08,0.635h-3.129c-0.178,0-0.339-0.072-0.485-0.216C404.06,363.004,403.986,362.841,403.986,362.659z
		 M406.552,358.168c0,0.631,0.423,0.946,1.27,0.946h0.083c0.338,0,0.792-0.075,1.361-0.224c-0.11-0.858-0.303-1.493-0.576-1.905
		c-0.274-0.413-0.577-0.619-0.909-0.619c-0.327,0-0.611,0.173-0.855,0.519C406.682,357.231,406.557,357.659,406.552,358.168z
		 M406.692,352.482c-0.05-0.05-0.074-0.119-0.074-0.208s0.024-0.158,0.074-0.208l0.772-0.772c0.05-0.05,0.116-0.075,0.199-0.075
		s0.149,0.025,0.199,0.075l0.797,0.772c0.05,0.05,0.074,0.119,0.074,0.208s-0.024,0.158-0.074,0.208l-0.797,0.78
		c-0.05,0.05-0.116,0.075-0.199,0.075s-0.149-0.025-0.199-0.075L406.692,352.482z"/>
	<path style="fill:#FFFFFF;" d="M428.739,361.961l0.507-0.017v1.419c-0.504,0-0.886-0.005-1.146-0.017
		c-0.261-0.011-0.58-0.053-0.959-0.125s-0.727-0.18-1.042-0.324c-0.542,0.31-1.22,0.465-2.033,0.465h-4.524
		c-0.93,0-1.893-0.249-2.889-0.747l0.581-1.303c0.454,0.26,0.941,0.437,1.461,0.531c0.415-0.498,0.764-0.902,1.046-1.212v-8.6h1.278
		v7.321c1.378-1.295,2.516-2.003,3.412-2.125c0.127-0.017,0.254-0.025,0.382-0.025c0.764,0,1.418,0.288,1.963,0.863
		s0.817,1.27,0.817,2.083c0,0.647-0.152,1.217-0.456,1.71C427.491,361.928,428.025,361.961,428.739,361.961z M423.651,361.945
		c0.608,0,1.136-0.09,1.581-0.27c0.445-0.18,0.781-0.366,1.009-0.56c0.05-0.171,0.074-0.31,0.074-0.415
		c0-0.454-0.171-0.865-0.515-1.233c-0.343-0.368-0.758-0.552-1.245-0.552c-0.365,0-0.764,0.098-1.195,0.295
		c-0.432,0.196-0.857,0.463-1.278,0.801c-0.747,0.598-1.428,1.242-2.042,1.934H423.651z"/>
	<path style="fill:#FFFFFF;" d="M429.08,363.364c-0.166,0-0.298-0.07-0.395-0.212c-0.097-0.141-0.146-0.306-0.146-0.494
		s0.049-0.354,0.146-0.498s0.229-0.216,0.395-0.216h3.494v1.419H429.08z"/>
	<path style="fill:#FFFFFF;" d="M432.089,363.148c-0.146-0.144-0.22-0.307-0.22-0.49s0.07-0.347,0.211-0.494
		c0.142-0.147,0.301-0.22,0.478-0.22h1.785c0.343,0,0.685-0.035,1.024-0.104c0.341-0.069,0.639-0.148,0.893-0.236
		c0.255-0.088,0.545-0.217,0.872-0.386c0.326-0.169,0.585-0.313,0.775-0.432c0.191-0.119,0.453-0.285,0.785-0.498
		c0.332-0.213,0.578-0.37,0.738-0.469c-0.437-0.133-0.907-0.311-1.411-0.536c-0.503-0.224-0.921-0.402-1.253-0.535
		s-0.611-0.199-0.839-0.199c-0.382,0-0.885,0.374-1.511,1.121l-0.838-0.714c0.548-0.664,0.93-1.093,1.146-1.287
		c0.415-0.371,0.854-0.556,1.319-0.556c0.305,0,0.683,0.09,1.133,0.27c0.451,0.18,0.888,0.376,1.308,0.589
		c0.421,0.213,0.945,0.41,1.573,0.59c0.628,0.18,1.246,0.27,1.855,0.27h1.146l-0.299,1.419h-0.548c-0.315,0-0.643,0.057-0.979,0.17
		c-0.338,0.113-0.661,0.263-0.972,0.448c-0.31,0.185-0.631,0.387-0.963,0.605c-0.332,0.219-0.682,0.439-1.05,0.66
		s-0.746,0.425-1.133,0.61c-0.388,0.185-0.82,0.334-1.3,0.448c-0.479,0.113-0.97,0.17-1.473,0.17h-1.769
		C432.397,363.364,432.235,363.292,432.089,363.148z M434.559,354.424c-0.05-0.05-0.075-0.119-0.075-0.208s0.025-0.158,0.075-0.208
		l0.771-0.772c0.05-0.05,0.116-0.075,0.199-0.075s0.149,0.025,0.199,0.075l0.797,0.772c0.05,0.05,0.075,0.119,0.075,0.208
		s-0.025,0.158-0.075,0.208l-0.797,0.78c-0.05,0.05-0.116,0.075-0.199,0.075s-0.149-0.025-0.199-0.075L434.559,354.424z"/>
	<path style="fill:#FFFFFF;" d="M449.068,364.302c0-0.481,0.097-1.024,0.29-1.627c0.194-0.603,0.412-1.154,0.656-1.652l1.013,0.432
		c-0.194,0.387-0.358,0.847-0.494,1.378s-0.203,0.996-0.203,1.395c0,0.454,0.129,0.833,0.386,1.137
		c0.258,0.304,0.587,0.519,0.988,0.643c0.4,0.125,0.864,0.187,1.39,0.187c0.736,0,1.48-0.115,2.233-0.344
		c0.752-0.23,1.385-0.544,1.896-0.942s0.768-0.819,0.768-1.262c0-0.011-0.003-0.03-0.008-0.058c-0.006-0.028-0.009-0.05-0.009-0.066
		c-0.077-0.559-0.592-1.674-1.544-3.345l1.221-0.905c0.021,0.039,0.061,0.109,0.116,0.211c0.055,0.103,0.093,0.173,0.112,0.212
		c0.019,0.039,0.054,0.103,0.104,0.191s0.09,0.154,0.12,0.195c0.03,0.042,0.07,0.101,0.12,0.179s0.097,0.144,0.142,0.199
		c0.044,0.055,0.097,0.118,0.157,0.187c0.062,0.069,0.125,0.14,0.191,0.212c0.349,0.337,0.71,0.595,1.083,0.772
		c0.374,0.177,0.814,0.282,1.324,0.315c0.37-0.011,0.688-0.122,0.95-0.332s0.447-0.528,0.552-0.955l0.341-1.444l1.262,0.307
		l-0.44,1.801c0.481,0.415,1.041,0.623,1.677,0.623c0.471,0,0.847-0.091,1.129-0.274s0.424-0.454,0.424-0.813
		c0-0.327-0.049-0.664-0.146-1.013s-0.27-0.86-0.519-1.536l1.286-0.556c0.255,0.692,0.431,1.26,0.527,1.706
		c0.097,0.445,0.146,0.897,0.146,1.357c0,0.852-0.252,1.49-0.756,1.914c-0.503,0.423-1.2,0.635-2.092,0.635
		c-0.465,0-0.918-0.08-1.361-0.241c-0.442-0.161-0.783-0.36-1.021-0.598c-0.487,0.487-1.088,0.761-1.802,0.822v0.017h-0.124
		c-0.022,0-0.05,0.003-0.083,0.008s-0.059,0.008-0.075,0.008c-0.675,0-1.265-0.138-1.768-0.415c0.017,0.055,0.024,0.194,0.024,0.415
		c0,0.509-0.117,0.991-0.353,1.444s-0.551,0.847-0.946,1.179s-0.85,0.62-1.361,0.863s-1.052,0.426-1.618,0.548
		c-0.567,0.122-1.134,0.183-1.698,0.183c-0.569,0-1.103-0.066-1.598-0.199s-0.94-0.328-1.336-0.585
		c-0.396-0.258-0.707-0.602-0.935-1.034C449.182,365.348,449.068,364.855,449.068,364.302z M458.971,355.852
		c-0.05-0.05-0.074-0.111-0.074-0.183s0.024-0.133,0.074-0.183l0.723-0.739c0.05-0.05,0.11-0.075,0.183-0.075
		c0.071,0,0.133,0.025,0.183,0.075l0.738,0.739c0.05,0.05,0.075,0.111,0.075,0.183s-0.025,0.133-0.075,0.183l-0.738,0.722
		c-0.05,0.05-0.111,0.075-0.183,0.075c-0.072,0-0.133-0.025-0.183-0.075L458.971,355.852z M460.158,353.943
		c-0.095-0.111-0.095-0.224,0-0.34l0.647-0.647c0.044-0.039,0.1-0.058,0.166-0.058s0.121,0.02,0.166,0.058l0.647,0.647
		c0.11,0.116,0.11,0.229,0,0.34l-0.647,0.656c-0.045,0.039-0.1,0.058-0.166,0.058s-0.122-0.02-0.166-0.058L460.158,353.943z
		 M461.096,355.852c-0.05-0.05-0.074-0.111-0.074-0.183s0.024-0.133,0.074-0.183l0.723-0.739c0.05-0.05,0.11-0.075,0.183-0.075
		c0.071,0,0.133,0.025,0.183,0.075l0.738,0.739c0.05,0.05,0.075,0.111,0.075,0.183s-0.025,0.133-0.075,0.183l-0.738,0.722
		c-0.05,0.05-0.111,0.075-0.183,0.075c-0.072,0-0.133-0.025-0.183-0.075L461.096,355.852z"/>
	<path style="fill:#FFFFFF;" d="M478.129,361.945v1.419c-0.542,0-0.97-0.048-1.282-0.146c-0.313-0.097-0.574-0.25-0.784-0.46
		c0,0.758-0.228,1.486-0.681,2.183c-0.454,0.697-1.068,1.306-1.843,1.826c-0.775,0.52-1.66,0.938-2.656,1.253l-0.457-1.345
		c1.019-0.354,1.959-0.872,2.822-1.552c0.415-0.327,0.753-0.688,1.013-1.083c0.261-0.396,0.392-0.758,0.395-1.088
		c0.003-0.329-0.009-0.607-0.033-0.834c-0.025-0.227-0.115-0.566-0.27-1.017c-0.155-0.451-0.377-0.912-0.664-1.382l1.112-0.872
		c0.154,0.254,0.396,0.725,0.722,1.411c0.095,0.194,0.223,0.405,0.386,0.635c0.164,0.23,0.335,0.415,0.515,0.557
		c0.181,0.141,0.417,0.258,0.71,0.353C477.427,361.898,477.759,361.945,478.129,361.945z"/>
	<path style="fill:#FFFFFF;" d="M477.424,362.667c0-0.194,0.069-0.362,0.207-0.506c0.139-0.144,0.299-0.216,0.481-0.216h2.067
		c0.614,0,1.07-0.14,1.369-0.419c0.299-0.279,0.448-0.704,0.448-1.274v-1.436h1.262v1.436c0,0.553,0.159,0.974,0.478,1.262
		s0.763,0.432,1.332,0.432h0.216v1.419h-0.323c-0.664,0-1.19-0.106-1.577-0.319c-0.388-0.213-0.643-0.48-0.764-0.801
		c-0.111,0.327-0.345,0.595-0.702,0.805c-0.356,0.21-0.855,0.315-1.498,0.315h-2.308c-0.171,0-0.329-0.072-0.473-0.216
		C477.495,363.004,477.424,362.844,477.424,362.667z M478.859,356.051c-0.05-0.05-0.074-0.111-0.074-0.183s0.024-0.133,0.074-0.183
		l0.723-0.739c0.05-0.05,0.11-0.075,0.183-0.075c0.071,0,0.133,0.025,0.183,0.075l0.738,0.739c0.05,0.05,0.075,0.111,0.075,0.183
		s-0.025,0.133-0.075,0.183l-0.738,0.722c-0.05,0.05-0.111,0.075-0.183,0.075c-0.072,0-0.133-0.025-0.183-0.075L478.859,356.051z
		 M480.984,356.051c-0.05-0.05-0.074-0.111-0.074-0.183s0.024-0.133,0.074-0.183l0.723-0.739c0.05-0.05,0.11-0.075,0.183-0.075
		c0.071,0,0.133,0.025,0.183,0.075l0.738,0.739c0.05,0.05,0.075,0.111,0.075,0.183s-0.025,0.133-0.075,0.183l-0.738,0.722
		c-0.05,0.05-0.111,0.075-0.183,0.075c-0.072,0-0.133-0.025-0.183-0.075L480.984,356.051z"/>
	<path style="fill:#FFFFFF;" d="M484.786,363.148c-0.144-0.144-0.216-0.307-0.216-0.49s0.072-0.347,0.216-0.494
		c0.145-0.147,0.308-0.22,0.49-0.22h1.428c0.437,0,0.816-0.106,1.137-0.32c0.321-0.213,0.534-0.535,0.64-0.967l0.323-1.386
		l1.262,0.299l-0.456,1.785c0.608,0.393,1.2,0.589,1.776,0.589c0.382,0,0.71-0.105,0.983-0.315c0.274-0.21,0.464-0.534,0.568-0.971
		l0.332-1.444l1.254,0.307l-0.432,1.801c0.481,0.415,1.037,0.623,1.668,0.623c0.775,0,1.265-0.216,1.47-0.647l-0.523-2.183
		l1.245-0.407l0.44,1.951c0.088,0.426,0.263,0.747,0.522,0.963c0.261,0.216,0.664,0.324,1.212,0.324h0.623v1.419h-0.623
		c-0.979,0-1.713-0.235-2.199-0.706c-0.471,0.47-1.192,0.706-2.167,0.706c-0.465,0-0.918-0.08-1.361-0.241
		c-0.442-0.161-0.783-0.36-1.021-0.598c-0.543,0.559-1.24,0.838-2.092,0.838c-0.438,0-0.863-0.075-1.278-0.224
		s-0.77-0.362-1.063-0.639c-0.554,0.576-1.262,0.863-2.125,0.863h-1.544C485.094,363.364,484.931,363.292,484.786,363.148z"/>
	<path style="fill:#FFFFFF;" d="M500.574,363.364c-0.166,0-0.297-0.07-0.395-0.212c-0.097-0.141-0.145-0.306-0.145-0.494
		s0.048-0.354,0.145-0.498c0.098-0.144,0.229-0.216,0.395-0.216h3.495v1.419H500.574z"/>
	<path style="fill:#FFFFFF;" d="M503.584,363.148c-0.147-0.144-0.221-0.307-0.221-0.49s0.073-0.347,0.221-0.494
		c0.146-0.147,0.308-0.22,0.485-0.22h2.083c0.836,0,1.427-0.093,1.772-0.278c0.346-0.186,0.519-0.461,0.519-0.826
		c0-0.996-0.783-2.097-2.349-3.304c-0.282-0.216-0.583-0.429-0.9-0.639c-0.318-0.21-0.48-0.315-0.486-0.315
		c0.128-0.719,0.232-1.183,0.315-1.39c0.083-0.208,0.255-0.403,0.515-0.585c0.697-0.465,1.557-0.935,2.578-1.411
		c1.021-0.476,1.999-0.863,2.934-1.162l0.54,1.303c-1.882,0.581-3.714,1.406-5.495,2.474c0.349,0.232,0.65,0.444,0.904,0.635
		c0.255,0.191,0.569,0.459,0.942,0.806c0.374,0.346,0.68,0.683,0.917,1.013c0.238,0.329,0.445,0.721,0.623,1.174
		c0.177,0.454,0.266,0.913,0.266,1.378c0,0.752-0.303,1.366-0.909,1.838c-0.605,0.474-1.427,0.71-2.461,0.71h-2.308
		C503.892,363.364,503.73,363.292,503.584,363.148z M504.974,353.362c0.842-0.542,1.619-0.991,2.333-1.345s1.561-0.7,2.54-1.038
		l0.315,0.772c-0.892,0.299-1.705,0.628-2.44,0.988c-0.736,0.36-1.52,0.808-2.35,1.345L504.974,353.362z"/>
	<path style="fill:#FFFFFF;" d="M522.331,363.041c-0.57,0.216-1.132,0.324-1.686,0.324c-0.553,0-1.01-0.125-1.369-0.374
		c-0.681-0.465-1.021-1.195-1.021-2.191c0-0.515,0.097-1.004,0.291-1.469c0.193-0.465,0.489-0.854,0.888-1.166
		c0.398-0.313,0.858-0.469,1.378-0.469c0.979,0.005,1.695,0.419,2.146,1.241c0.45,0.822,0.682,2.11,0.692,3.864
		c-0.005,0.792-0.266,1.549-0.78,2.274s-1.199,1.349-2.054,1.872c-0.855,0.522-1.819,0.934-2.894,1.232l-0.323-1.361
		c1.046-0.277,2.042-0.742,2.988-1.395c0.47-0.321,0.864-0.69,1.183-1.108C522.089,363.897,522.275,363.472,522.331,363.041z
		 M519.87,359.6c-0.23,0.313-0.345,0.659-0.345,1.038c0,0.379,0.104,0.69,0.312,0.934c0.207,0.244,0.519,0.365,0.934,0.365h0.1
		c0.304,0,0.595-0.037,0.871-0.112c0.277-0.074,0.465-0.165,0.564-0.27l0.066,0.282c-0.088-1.804-0.625-2.706-1.61-2.706
		C520.396,359.131,520.1,359.287,519.87,359.6z"/>
	<path style="fill:#FFFFFF;" d="M530.586,362.846c-0.429-0.191-0.75-0.465-0.963-0.822c-0.213-0.356-0.319-0.798-0.319-1.324
		c0-0.603,0.166-1.472,0.498-2.606l1.162,0.357c-0.028,0.094-0.068,0.236-0.12,0.428c-0.053,0.19-0.092,0.336-0.116,0.436
		c-0.025,0.1-0.055,0.22-0.088,0.361c-0.033,0.141-0.057,0.268-0.07,0.382c-0.014,0.113-0.021,0.22-0.021,0.319
		c0,0.022,0.003,0.05,0.008,0.083c0.006,0.033,0.009,0.061,0.009,0.083c0.061,0.503,0.379,0.863,0.954,1.079
		c0.576,0.216,1.5,0.324,2.772,0.324c0.498,0,0.948-0.008,1.35-0.025c0.4-0.017,0.799-0.044,1.195-0.083
		c0.396-0.039,0.738-0.094,1.029-0.166c0.29-0.072,0.548-0.159,0.771-0.262c0.225-0.102,0.395-0.231,0.511-0.386
		s0.174-0.332,0.174-0.531c0-0.017,0-0.036,0-0.058v-1.619h1.287v1.436c0,0.553,0.162,0.974,0.485,1.262
		c0.324,0.288,0.763,0.432,1.315,0.432h0.225v1.419h-0.341c-1.029,0-1.823-0.396-2.382-1.187c-0.266,0.26-0.604,0.473-1.017,0.639
		c-0.413,0.166-0.889,0.286-1.428,0.361c-0.54,0.074-1.048,0.124-1.523,0.149c-0.477,0.024-1.038,0.037-1.686,0.037h-0.299
		c-0.752,0-1.396-0.039-1.93-0.116S531.015,363.036,530.586,362.846z M533.263,356.217c-0.05-0.05-0.074-0.111-0.074-0.183
		s0.024-0.133,0.074-0.183l0.723-0.739c0.05-0.05,0.11-0.075,0.183-0.075c0.071,0,0.133,0.025,0.183,0.075l0.738,0.739
		c0.05,0.05,0.075,0.111,0.075,0.183s-0.025,0.133-0.075,0.183l-0.738,0.722c-0.05,0.05-0.111,0.075-0.183,0.075
		c-0.072,0-0.133-0.025-0.183-0.075L533.263,356.217z M535.388,356.217c-0.05-0.05-0.074-0.111-0.074-0.183s0.024-0.133,0.074-0.183
		l0.723-0.739c0.05-0.05,0.11-0.075,0.183-0.075c0.071,0,0.133,0.025,0.183,0.075l0.738,0.739c0.05,0.05,0.075,0.111,0.075,0.183
		s-0.025,0.133-0.075,0.183l-0.738,0.722c-0.05,0.05-0.111,0.075-0.183,0.075c-0.072,0-0.133-0.025-0.183-0.075L535.388,356.217z"/>
	<path style="fill:#FFFFFF;" d="M541.921,362.659c0.011-0.183,0.087-0.347,0.228-0.494c0.142-0.147,0.301-0.22,0.478-0.22h2.308
		c1.013,0,1.52-0.429,1.52-1.287c0-0.232-0.042-0.518-0.125-0.855s-0.154-0.589-0.216-0.755c-0.061-0.166-0.16-0.432-0.299-0.797
		l1.304-0.54c0.442,1.146,0.664,2.155,0.664,3.03c0,1.749-0.949,2.623-2.848,2.623h-2.308c-0.177,0-0.339-0.072-0.485-0.216
		S541.921,362.841,541.921,362.659z M543.821,354.881c-0.05-0.05-0.074-0.119-0.074-0.208s0.024-0.158,0.074-0.208l0.772-0.772
		c0.05-0.05,0.116-0.075,0.199-0.075s0.149,0.025,0.199,0.075l0.797,0.772c0.05,0.05,0.074,0.119,0.074,0.208
		s-0.024,0.158-0.074,0.208l-0.797,0.78c-0.05,0.05-0.116,0.075-0.199,0.075s-0.149-0.025-0.199-0.075L543.821,354.881z"/>
	<path style="fill:#FFFFFF;" d="M550.255,360.617v-8.583h1.278v8.301c0,0.564,0.141,0.974,0.423,1.229s0.617,0.382,1.005,0.382
		v1.419c-0.41,0-0.775-0.053-1.096-0.158c-0.321-0.105-0.581-0.245-0.78-0.419c-0.199-0.174-0.362-0.383-0.49-0.626
		C550.368,361.729,550.255,361.214,550.255,360.617z"/>
	<path style="fill:#FFFFFF;" d="M552.247,362.667c0-0.194,0.069-0.362,0.207-0.506c0.139-0.144,0.299-0.216,0.481-0.216h2.067
		c0.614,0,1.07-0.14,1.369-0.419c0.299-0.279,0.448-0.704,0.448-1.274v-1.436h1.262v1.436c0,0.553,0.159,0.974,0.478,1.262
		s0.763,0.432,1.332,0.432h0.216v1.419h-0.323c-0.664,0-1.19-0.106-1.577-0.319c-0.388-0.213-0.643-0.48-0.764-0.801
		c-0.111,0.327-0.345,0.595-0.702,0.805c-0.356,0.21-0.855,0.315-1.498,0.315h-2.308c-0.171,0-0.329-0.072-0.473-0.216
		C552.318,363.004,552.247,362.844,552.247,362.667z M552.952,365.473l0.723-0.739c0.05-0.05,0.11-0.075,0.183-0.075
		c0.071,0,0.133,0.025,0.183,0.075l0.738,0.739c0.05,0.05,0.075,0.111,0.075,0.183s-0.025,0.133-0.075,0.183l-0.738,0.739
		c-0.05,0.05-0.111,0.075-0.183,0.075c-0.072,0-0.133-0.025-0.183-0.075l-0.723-0.739c-0.05-0.05-0.074-0.111-0.074-0.183
		S552.902,365.522,552.952,365.473z M555.077,365.473l0.723-0.739c0.05-0.05,0.11-0.075,0.183-0.075
		c0.071,0,0.133,0.025,0.183,0.075l0.738,0.739c0.05,0.05,0.075,0.111,0.075,0.183s-0.025,0.133-0.075,0.183l-0.738,0.739
		c-0.05,0.05-0.111,0.075-0.183,0.075c-0.072,0-0.133-0.025-0.183-0.075l-0.723-0.739c-0.05-0.05-0.074-0.111-0.074-0.183
		S555.027,365.522,555.077,365.473z"/>
	<path style="fill:#FFFFFF;" d="M559.934,363.364c-0.166,0-0.298-0.07-0.395-0.212c-0.097-0.141-0.146-0.306-0.146-0.494
		s0.049-0.354,0.146-0.498s0.229-0.216,0.395-0.216h3.494v1.419H559.934z"/>
	<path style="fill:#FFFFFF;" d="M562.934,363.148c-0.141-0.144-0.211-0.307-0.211-0.49s0.07-0.347,0.211-0.494
		c0.142-0.147,0.301-0.22,0.478-0.22h1.096c0.609,0,1.059-0.138,1.349-0.415c0.291-0.277,0.437-0.703,0.437-1.278v-1.137h1.286
		v1.137c0,0.598,0.194,1.046,0.581,1.345c0.493-0.581,0.894-1.044,1.204-1.39c0.31-0.346,0.674-0.721,1.091-1.125
		c0.418-0.404,0.789-0.714,1.112-0.93c0.324-0.216,0.68-0.397,1.067-0.544c0.387-0.146,0.771-0.22,1.153-0.22
		c0.609,0,1.133,0.134,1.573,0.402c0.439,0.269,0.763,0.609,0.967,1.021c0.205,0.412,0.308,0.862,0.308,1.349
		c0,0.398-0.075,0.786-0.225,1.162s-0.363,0.718-0.644,1.025c-0.279,0.307-0.646,0.553-1.1,0.738
		c-0.453,0.186-0.957,0.278-1.511,0.278h-3.876c-0.67,0-1.2-0.106-1.59-0.319c-0.391-0.213-0.641-0.48-0.751-0.801
		c-0.122,0.327-0.36,0.595-0.714,0.805c-0.354,0.21-0.847,0.315-1.478,0.315h-1.337
		C563.234,363.364,563.075,363.292,562.934,363.148z M568.965,361.945h3.785c0.835,0,1.479-0.174,1.93-0.523s0.677-0.755,0.677-1.22
		c0-0.376-0.152-0.699-0.457-0.967c-0.304-0.268-0.719-0.402-1.245-0.402C572.498,358.832,570.935,359.87,568.965,361.945z"/>
	<path style="fill:#FFFFFF;" d="M582.91,362.937c-0.178-0.285-0.266-0.624-0.266-1.017s0.12-0.819,0.361-1.278
		c0.24-0.459,0.568-0.888,0.983-1.287l0.522,0.523c-0.133,0.144-0.237,0.26-0.315,0.349c-0.077,0.088-0.157,0.216-0.24,0.382
		s-0.125,0.324-0.125,0.473c0,0.26,0.158,0.548,0.474,0.863c0.138,0.155,0.207,0.347,0.207,0.577c0,0.23-0.086,0.428-0.257,0.594
		c-0.172,0.166-0.374,0.249-0.606,0.249C583.333,363.364,583.087,363.222,582.91,362.937z"/>
	<path style="fill:#FFFFFF;" d="M586.662,362.617l0.581-1.303c0.453,0.26,0.94,0.437,1.461,0.531
		c0.415-0.498,0.764-0.902,1.046-1.212v-8.6h1.278v7.321c1.378-1.295,2.515-2.003,3.411-2.125c0.128-0.017,0.255-0.025,0.382-0.025
		c0.764,0,1.418,0.288,1.964,0.863c0.545,0.576,0.817,1.27,0.817,2.083c0,0.647-0.152,1.217-0.457,1.71
		c0.354,0.066,0.889,0.1,1.603,0.1c0.061,0,0.147-0.003,0.262-0.008c0.113-0.005,0.194-0.008,0.244-0.008v1.419
		c-0.503,0-0.885-0.005-1.146-0.017c-0.26-0.011-0.579-0.053-0.958-0.125c-0.38-0.072-0.727-0.18-1.042-0.324
		c-0.543,0.31-1.221,0.465-2.034,0.465h-4.523C588.621,363.364,587.658,363.115,586.662,362.617z M590.049,361.945h3.61
		c0.609,0,1.136-0.09,1.582-0.27c0.445-0.18,0.781-0.366,1.008-0.56c0.05-0.171,0.075-0.31,0.075-0.415
		c0-0.454-0.172-0.865-0.515-1.233c-0.344-0.368-0.759-0.552-1.245-0.552c-0.365,0-0.764,0.098-1.195,0.295
		c-0.432,0.196-0.856,0.462-1.274,0.797c-0.418,0.334-0.786,0.654-1.104,0.958C590.673,361.27,590.358,361.596,590.049,361.945z
		 M592.929,354.864c-0.05-0.05-0.074-0.119-0.074-0.208s0.024-0.158,0.074-0.208l0.772-0.772c0.05-0.05,0.116-0.075,0.199-0.075
		s0.149,0.025,0.199,0.075l0.797,0.772c0.05,0.05,0.074,0.119,0.074,0.208s-0.024,0.158-0.074,0.208l-0.797,0.78
		c-0.05,0.05-0.116,0.075-0.199,0.075s-0.149-0.025-0.199-0.075L592.929,354.864z"/>
	<path style="fill:#FFFFFF;" d="M598.756,363.14c-0.138-0.138-0.207-0.299-0.207-0.481s0.07-0.347,0.211-0.494
		c0.142-0.147,0.301-0.22,0.478-0.22h0.315c0.564,0,1.065-0.028,1.503-0.083c-0.51-0.559-0.764-1.207-0.764-1.942
		c0-0.503,0.076-0.958,0.228-1.361c0.152-0.404,0.357-0.726,0.614-0.967c0.258-0.24,0.546-0.424,0.863-0.552
		c0.318-0.127,0.652-0.191,1.001-0.191c0.337,0,0.664,0.063,0.979,0.191s0.601,0.307,0.854,0.54c0.255,0.232,0.46,0.534,0.614,0.905
		c0.155,0.371,0.235,0.78,0.241,1.229c0,0.354-0.093,0.722-0.278,1.104s-0.458,0.742-0.817,1.079c0.509,0.033,0.949,0.05,1.319,0.05
		h1.188v1.419h-1.229c-1.229,0-2.264-0.152-3.104-0.457c-0.886,0.304-1.896,0.457-3.03,0.457h-0.498
		C599.055,363.353,598.895,363.278,598.756,363.14z M601.562,359.272c0,0.996,0.429,1.705,1.287,2.125
		c1.04-0.459,1.561-1.182,1.561-2.167c-0.012-0.205-0.165-0.415-0.461-0.631s-0.61-0.324-0.942-0.324
		c-0.349,0-0.674,0.116-0.976,0.349C601.729,358.857,601.573,359.073,601.562,359.272z M602.076,353.86
		c-0.05-0.05-0.074-0.119-0.074-0.208s0.024-0.158,0.074-0.208l0.772-0.772c0.05-0.05,0.116-0.075,0.199-0.075
		s0.149,0.025,0.199,0.075l0.797,0.772c0.05,0.05,0.074,0.119,0.074,0.208s-0.024,0.158-0.074,0.208l-0.797,0.78
		c-0.05,0.05-0.116,0.075-0.199,0.075s-0.149-0.025-0.199-0.075L602.076,353.86z"/>
	<path style="fill:#FFFFFF;" d="M606.933,363.364c-0.166,0-0.298-0.07-0.395-0.212c-0.097-0.141-0.146-0.306-0.146-0.494
		s0.049-0.354,0.146-0.498s0.229-0.216,0.395-0.216h3.494v1.419H606.933z"/>
	<path style="fill:#FFFFFF;" d="M609.941,363.148c-0.146-0.144-0.22-0.307-0.22-0.49s0.07-0.347,0.211-0.494
		c0.142-0.147,0.301-0.22,0.478-0.22h1.785c1.14,0,2.327-0.385,3.561-1.154c0.194-0.122,0.457-0.289,0.789-0.502
		c0.332-0.213,0.578-0.37,0.738-0.469c-0.437-0.133-0.907-0.311-1.411-0.536c-0.503-0.224-0.921-0.402-1.253-0.535
		s-0.611-0.199-0.839-0.199c-0.382,0-0.885,0.374-1.511,1.121l-0.838-0.714c0.548-0.664,0.93-1.093,1.146-1.287
		c0.415-0.371,0.854-0.556,1.319-0.556c0.498,0,1.312,0.285,2.44,0.855c0.421,0.216,0.945,0.414,1.573,0.594
		c0.628,0.18,1.246,0.27,1.855,0.27h1.146l-0.299,1.419h-0.549c-0.609,0-1.259,0.208-1.951,0.623
		c-0.31,0.183-0.631,0.383-0.963,0.602c-0.332,0.219-0.682,0.439-1.05,0.66s-0.746,0.426-1.133,0.614
		c-0.863,0.41-1.788,0.614-2.772,0.614h-1.769C610.25,363.364,610.088,363.292,609.941,363.148z"/>
	<path style="fill:#FFFFFF;" d="M636.425,365.373l-0.016,0.033c-0.526,0.675-1.283,1.215-2.271,1.619
		c-0.988,0.404-1.997,0.606-3.026,0.606c-0.935,0-1.745-0.166-2.432-0.498c-0.747-0.371-1.259-0.896-1.535-1.577
		c-0.15-0.371-0.225-0.78-0.225-1.229c0-1.112,0.454-2.424,1.361-3.935l0.889,0.564c-0.62,1.146-0.93,2.142-0.93,2.988
		c0,0.526,0.131,0.961,0.394,1.308c0.263,0.346,0.598,0.589,1.005,0.73c0.406,0.141,0.878,0.211,1.415,0.211
		c0.88,0,1.761-0.176,2.644-0.527c0.883-0.352,1.498-0.779,1.848-1.283c0.038-0.072,0.058-0.156,0.058-0.253
		c0-0.097-0.05-0.199-0.149-0.307c-0.1-0.108-0.259-0.216-0.478-0.324c-0.219-0.107-0.405-0.193-0.56-0.257
		c-0.155-0.064-0.392-0.152-0.71-0.266c-0.318-0.114-0.521-0.187-0.61-0.22c-0.21-0.083-0.381-0.224-0.511-0.423
		s-0.194-0.468-0.194-0.805s0.133-0.742,0.398-1.212c0.437-0.792,0.928-1.426,1.473-1.905c0.545-0.479,1.092-0.718,1.64-0.718
		c0.907,0,1.674,0.647,2.3,1.942l-0.972,0.78c-0.288-0.448-0.545-0.771-0.772-0.967c-0.227-0.196-0.45-0.294-0.672-0.294
		s-0.454,0.094-0.697,0.282s-0.537,0.463-0.88,0.826c-0.343,0.363-0.515,0.646-0.515,0.851c0,0.094,0.033,0.176,0.1,0.245
		c0.066,0.069,0.13,0.118,0.191,0.146c0.061,0.028,0.146,0.061,0.257,0.1c0.797,0.282,1.342,0.503,1.636,0.664
		c0.802,0.432,1.203,0.952,1.203,1.561C637.081,364.277,636.862,364.792,636.425,365.373z"/>
	<path style="fill:#FFFFFF;" d="M640.318,363.364v-11.331h1.278v11.331H640.318z"/>
	<path style="fill:#FFFFFF;" d="M651.416,361.945v1.419c-0.542,0-0.97-0.048-1.282-0.146c-0.313-0.097-0.574-0.25-0.784-0.46
		c0,0.758-0.228,1.486-0.682,2.183c-0.453,0.697-1.067,1.306-1.842,1.826c-0.775,0.52-1.66,0.938-2.656,1.253l-0.457-1.345
		c1.019-0.354,1.959-0.872,2.822-1.552c0.415-0.327,0.753-0.688,1.013-1.083c0.26-0.396,0.392-0.758,0.395-1.088
		c0.003-0.329-0.009-0.607-0.033-0.834c-0.025-0.227-0.115-0.566-0.271-1.017c-0.154-0.451-0.376-0.912-0.664-1.382l1.113-0.872
		c0.154,0.254,0.396,0.725,0.722,1.411c0.094,0.194,0.223,0.405,0.386,0.635c0.163,0.23,0.335,0.415,0.515,0.557
		c0.18,0.141,0.417,0.258,0.71,0.353S651.045,361.945,651.416,361.945z"/>
	<path style="fill:#FFFFFF;" d="M651.25,363.364c-0.166,0-0.298-0.07-0.395-0.212c-0.097-0.141-0.145-0.306-0.145-0.494
		s0.048-0.354,0.145-0.498s0.229-0.216,0.395-0.216h3.494v1.419H651.25z"/>
	<path style="fill:#FFFFFF;" d="M654.04,362.659c0.011-0.183,0.087-0.347,0.228-0.494c0.142-0.147,0.301-0.22,0.478-0.22h2.308
		c1.013,0,1.519-0.429,1.519-1.287c0-0.232-0.041-0.518-0.124-0.855s-0.155-0.589-0.216-0.755s-0.16-0.432-0.299-0.797l1.303-0.54
		c0.443,1.146,0.664,2.155,0.664,3.03c0,1.749-0.948,2.623-2.847,2.623h-2.308c-0.177,0-0.339-0.072-0.485-0.216
		S654.04,362.841,654.04,362.659z M655.426,365.539l0.772-0.78c0.049-0.05,0.115-0.075,0.199-0.075c0.082,0,0.148,0.025,0.199,0.075
		l0.797,0.78c0.049,0.05,0.074,0.112,0.074,0.187c0,0.075-0.025,0.143-0.074,0.204l-0.797,0.764
		c-0.051,0.061-0.117,0.091-0.199,0.091c-0.084,0-0.15-0.03-0.199-0.091l-0.772-0.764c-0.05-0.061-0.075-0.128-0.075-0.204
		C655.351,365.651,655.376,365.589,655.426,365.539z"/>
	<path style="fill:#FFFFFF;" d="M365.139,391.714c0-1.106,0.459-2.424,1.378-3.951l0.888,0.564
		c-0.642,1.173-0.963,2.175-0.963,3.005c0,0.393,0.073,0.737,0.221,1.033c0.146,0.297,0.353,0.527,0.618,0.693
		c0.52,0.338,1.155,0.506,1.905,0.506c0.749,0,1.491-0.117,2.225-0.353c0.732-0.235,1.346-0.554,1.838-0.954
		c0.493-0.401,0.742-0.814,0.747-1.241v-11.613h1.287v11.53c-0.006,0.598-0.189,1.155-0.552,1.673
		c-0.363,0.517-0.83,0.946-1.403,1.286c-0.572,0.341-1.211,0.607-1.913,0.801c-0.703,0.194-1.342,0.291-1.918,0.291
		c-0.575,0-1.065-0.039-1.469-0.116c-0.404-0.077-0.783-0.202-1.138-0.374c-0.354-0.171-0.659-0.383-0.917-0.635
		c-0.257-0.252-0.461-0.561-0.61-0.926S365.139,392.162,365.139,391.714z"/>
	<path style="fill:#FFFFFF;" d="M377.398,387.986v-8.583h1.278v8.301c0,0.564,0.142,0.974,0.424,1.229
		c0.282,0.254,0.617,0.381,1.004,0.381v1.42c-0.409,0-0.774-0.053-1.096-0.158c-0.32-0.104-0.581-0.244-0.78-0.419
		c-0.199-0.174-0.362-0.383-0.489-0.626C377.512,389.1,377.398,388.584,377.398,387.986z"/>
	<path style="fill:#FFFFFF;" d="M379.391,390.037c0-0.193,0.069-0.362,0.208-0.506c0.138-0.145,0.299-0.217,0.481-0.217h2.066
		c0.614,0,1.071-0.139,1.37-0.419c0.299-0.279,0.448-0.704,0.448-1.274v-1.436h1.262v1.436c0,0.554,0.159,0.975,0.478,1.262
		c0.317,0.288,0.762,0.432,1.332,0.432h0.216v1.42h-0.324c-0.664,0-1.189-0.106-1.577-0.319c-0.387-0.214-0.642-0.48-0.764-0.802
		c-0.11,0.327-0.344,0.596-0.701,0.806c-0.356,0.21-0.856,0.315-1.498,0.315h-2.308c-0.172,0-0.329-0.072-0.474-0.216
		C379.463,390.375,379.391,390.215,379.391,390.037z M380.827,383.421c-0.05-0.05-0.075-0.111-0.075-0.183s0.025-0.133,0.075-0.183
		l0.722-0.739c0.05-0.05,0.111-0.075,0.183-0.075c0.072,0,0.133,0.025,0.183,0.075l0.739,0.739c0.05,0.05,0.074,0.111,0.074,0.183
		s-0.024,0.133-0.074,0.183l-0.739,0.722c-0.05,0.05-0.11,0.075-0.183,0.075c-0.071,0-0.133-0.025-0.183-0.075L380.827,383.421z
		 M382.952,383.421c-0.05-0.05-0.075-0.111-0.075-0.183s0.025-0.133,0.075-0.183l0.722-0.739c0.05-0.05,0.111-0.075,0.183-0.075
		c0.072,0,0.133,0.025,0.183,0.075l0.739,0.739c0.05,0.05,0.074,0.111,0.074,0.183s-0.024,0.133-0.074,0.183l-0.739,0.722
		c-0.05,0.05-0.11,0.075-0.183,0.075c-0.071,0-0.133-0.025-0.183-0.075L382.952,383.421z"/>
	<path style="fill:#FFFFFF;" d="M386.538,390.037c0-0.193,0.069-0.362,0.207-0.506c0.139-0.145,0.299-0.217,0.481-0.217h2.067
		c0.614,0,1.07-0.139,1.369-0.419c0.299-0.279,0.448-0.704,0.448-1.274v-1.436h1.262v1.436c0,0.554,0.159,0.975,0.478,1.262
		c0.318,0.288,0.763,0.432,1.332,0.432h0.216v1.42h-0.323c-0.664,0-1.19-0.106-1.577-0.319c-0.388-0.214-0.643-0.48-0.764-0.802
		c-0.111,0.327-0.345,0.596-0.702,0.806c-0.356,0.21-0.855,0.315-1.498,0.315h-2.308c-0.171,0-0.329-0.072-0.473-0.216
		C386.609,390.375,386.538,390.215,386.538,390.037z M387.243,392.843l0.723-0.739c0.05-0.049,0.11-0.074,0.183-0.074
		c0.071,0,0.133,0.025,0.183,0.074l0.738,0.739c0.05,0.05,0.075,0.11,0.075,0.183s-0.025,0.133-0.075,0.183l-0.738,0.739
		c-0.05,0.049-0.111,0.074-0.183,0.074c-0.072,0-0.133-0.025-0.183-0.074l-0.723-0.739c-0.05-0.05-0.074-0.11-0.074-0.183
		S387.193,392.893,387.243,392.843z M389.368,392.843l0.723-0.739c0.05-0.049,0.11-0.074,0.183-0.074
		c0.071,0,0.133,0.025,0.183,0.074l0.738,0.739c0.05,0.05,0.075,0.11,0.075,0.183s-0.025,0.133-0.075,0.183l-0.738,0.739
		c-0.05,0.049-0.111,0.074-0.183,0.074c-0.072,0-0.133-0.025-0.183-0.074l-0.723-0.739c-0.05-0.05-0.074-0.11-0.074-0.183
		S389.318,392.893,389.368,392.843z"/>
	<path style="fill:#FFFFFF;" d="M393.905,390.519c-0.147-0.144-0.221-0.308-0.221-0.489c0-0.184,0.071-0.348,0.212-0.494
		c0.142-0.146,0.3-0.221,0.478-0.221h1.784c0.344,0,0.686-0.034,1.025-0.104c0.341-0.068,0.638-0.148,0.893-0.236
		c0.254-0.088,0.545-0.217,0.871-0.386c0.327-0.169,0.586-0.313,0.776-0.432c0.191-0.119,0.452-0.285,0.784-0.498
		c0.332-0.214,0.578-0.37,0.739-0.47c-0.438-0.133-0.908-0.311-1.411-0.535c-0.504-0.224-0.922-0.402-1.254-0.535
		s-0.611-0.199-0.838-0.199c-0.382,0-0.886,0.373-1.511,1.121l-0.839-0.715c0.548-0.664,0.93-1.092,1.146-1.286
		c0.415-0.371,0.855-0.556,1.32-0.556c0.304,0,0.682,0.09,1.133,0.27c0.451,0.18,0.887,0.376,1.308,0.589
		c0.42,0.214,0.944,0.409,1.573,0.59c0.628,0.18,1.246,0.27,1.854,0.27h1.146l-0.299,1.419h-0.548c-0.266,0-0.578,0.051-0.938,0.15
		c0.121,0.525,0.393,0.914,0.813,1.166c0.42,0.252,1.023,0.377,1.81,0.377v1.42c-1.157,0-2.013-0.196-2.569-0.59
		c-0.556-0.393-0.909-1.031-1.059-1.917c-0.237,0.133-0.558,0.332-0.958,0.598c-0.401,0.266-0.76,0.494-1.075,0.685
		c-0.315,0.191-0.681,0.389-1.096,0.594s-0.859,0.361-1.332,0.469c-0.474,0.108-0.962,0.162-1.466,0.162h-1.768
		C394.213,390.734,394.052,390.662,393.905,390.519z M396.772,392.876l0.772-0.78c0.05-0.05,0.116-0.074,0.199-0.074
		s0.149,0.024,0.199,0.074l0.797,0.78c0.05,0.05,0.074,0.112,0.074,0.187c0,0.075-0.024,0.143-0.074,0.203l-0.797,0.764
		c-0.05,0.062-0.116,0.092-0.199,0.092s-0.149-0.03-0.199-0.092l-0.772-0.764c-0.05-0.061-0.074-0.128-0.074-0.203
		C396.698,392.988,396.723,392.926,396.772,392.876z"/>
	<path style="fill:#FFFFFF;" d="M404.999,390.029c0.011-0.184,0.087-0.348,0.228-0.494c0.142-0.146,0.301-0.221,0.478-0.221h2.308
		c1.013,0,1.52-0.428,1.52-1.286c0-0.232-0.042-0.518-0.125-0.854c-0.083-0.338-0.154-0.59-0.216-0.756
		c-0.061-0.166-0.16-0.432-0.299-0.797l1.304-0.539c0.442,1.145,0.664,2.154,0.664,3.029c0,1.748-0.949,2.623-2.848,2.623h-2.308
		c-0.183,0-0.346-0.072-0.489-0.216C405.07,390.375,404.999,390.211,404.999,390.029z M405.198,392.885l0.722-0.739
		c0.05-0.05,0.111-0.075,0.183-0.075c0.072,0,0.133,0.025,0.183,0.075l0.739,0.739c0.05,0.049,0.074,0.11,0.074,0.182
		c0,0.072-0.024,0.133-0.074,0.184l-0.739,0.738c-0.05,0.05-0.11,0.074-0.183,0.074c-0.071,0-0.133-0.024-0.183-0.074l-0.722-0.738
		c-0.05-0.051-0.075-0.111-0.075-0.184C405.123,392.995,405.148,392.934,405.198,392.885z M407.323,392.885l0.722-0.739
		c0.05-0.05,0.111-0.075,0.183-0.075c0.072,0,0.133,0.025,0.183,0.075l0.739,0.739c0.05,0.049,0.074,0.11,0.074,0.182
		c0,0.072-0.024,0.133-0.074,0.184l-0.739,0.738c-0.05,0.05-0.11,0.074-0.183,0.074c-0.071,0-0.133-0.024-0.183-0.074l-0.722-0.738
		c-0.05-0.051-0.075-0.111-0.075-0.184C407.248,392.995,407.273,392.934,407.323,392.885z"/>
	<path style="fill:#FFFFFF;" d="M416.238,389.273c1.018,0,1.787-0.302,2.308-0.904c-0.1-1.129-0.883-2.499-2.35-4.109l1.029-0.938
		c0.576,0.598,1.126,1.309,1.652,2.133c0.287,0.453,0.518,0.942,0.688,1.465c0.172,0.523,0.258,1.031,0.258,1.523
		c0,0.211-0.13,0.504-0.391,0.88c-0.061,0.089-0.097,0.144-0.107,0.166c-0.847,0.83-1.871,1.245-3.071,1.245
		c-0.969,0-1.942-0.254-2.922-0.764l0.581-1.287C414.583,389.077,415.358,389.273,416.238,389.273z"/>
	<path style="fill:#FFFFFF;" d="M434.981,392.743l-0.017,0.033c-0.526,0.675-1.283,1.215-2.271,1.618
		c-0.988,0.404-1.996,0.606-3.025,0.606c-0.936,0-1.746-0.166-2.433-0.498c-0.747-0.37-1.259-0.896-1.535-1.577
		c-0.149-0.371-0.225-0.78-0.225-1.229c0-1.112,0.454-2.424,1.361-3.935l0.889,0.564c-0.62,1.146-0.93,2.142-0.93,2.988
		c0,0.526,0.131,0.962,0.394,1.308c0.264,0.346,0.598,0.589,1.005,0.73c0.406,0.141,0.879,0.211,1.415,0.211
		c0.88,0,1.762-0.176,2.644-0.526c0.883-0.352,1.499-0.779,1.848-1.282c0.038-0.072,0.058-0.156,0.058-0.254
		c0-0.097-0.05-0.199-0.149-0.307c-0.1-0.108-0.259-0.216-0.478-0.324c-0.218-0.107-0.405-0.193-0.56-0.257
		c-0.155-0.063-0.392-0.152-0.71-0.266c-0.318-0.114-0.521-0.187-0.61-0.22c-0.21-0.084-0.38-0.225-0.511-0.424
		c-0.13-0.199-0.194-0.468-0.194-0.805c0-0.338,0.133-0.742,0.398-1.213c0.437-0.791,0.928-1.426,1.473-1.904
		c0.546-0.479,1.092-0.719,1.64-0.719c0.908,0,1.674,0.648,2.3,1.943l-0.972,0.779c-0.287-0.447-0.545-0.77-0.771-0.967
		c-0.228-0.196-0.451-0.295-0.673-0.295c-0.221,0-0.453,0.095-0.697,0.283c-0.243,0.188-0.536,0.463-0.88,0.825
		c-0.343,0.362-0.515,0.646-0.515,0.851c0,0.095,0.033,0.176,0.1,0.245s0.13,0.118,0.191,0.146c0.061,0.027,0.146,0.061,0.257,0.1
		c0.797,0.282,1.342,0.504,1.636,0.664c0.802,0.432,1.203,0.951,1.203,1.561C435.637,391.647,435.418,392.162,434.981,392.743z"/>
	<path style="fill:#FFFFFF;" d="M438.874,387.986v-8.583h1.278v8.301c0,0.564,0.142,0.974,0.424,1.229
		c0.282,0.254,0.617,0.381,1.004,0.381v1.42c-0.409,0-0.774-0.053-1.096-0.158c-0.32-0.104-0.581-0.244-0.78-0.419
		c-0.199-0.174-0.362-0.383-0.489-0.626C438.987,389.1,438.874,388.584,438.874,387.986z"/>
	<path style="fill:#FFFFFF;" d="M441.406,390.734c-0.166,0-0.298-0.07-0.395-0.212c-0.097-0.141-0.146-0.306-0.146-0.493
		c0-0.188,0.049-0.354,0.146-0.498c0.097-0.145,0.229-0.217,0.395-0.217h3.494v1.42H441.406z"/>
	<path style="fill:#FFFFFF;" d="M444.411,390.519c-0.145-0.144-0.216-0.309-0.216-0.494c0-0.185,0.069-0.35,0.207-0.493
		c0.139-0.145,0.299-0.217,0.481-0.217h1.437c0.359,0,0.7-0.041,1.021-0.124c-0.774-0.564-1.162-1.22-1.162-1.968
		c0-0.669,0.266-1.324,0.797-1.967c0.277-0.327,0.581-0.601,0.913-0.822c-0.271-0.116-0.439-0.188-0.506-0.216l0.439-1.328
		c0.819,0.337,1.598,0.689,2.337,1.054c0.738,0.365,1.291,0.682,1.656,0.95c0.365,0.269,0.741,0.577,1.129,0.926
		c0.774,0.697,1.162,1.486,1.162,2.365c0,0.759-0.329,1.536-0.988,2.333c-0.104,0.133-0.393,0.199-0.863,0.199
		c-0.47,0-1.001-0.057-1.594-0.17c-0.592-0.114-1.167-0.278-1.727-0.494c-0.702,0.454-1.447,0.681-2.232,0.681h-1.818
		C444.713,390.734,444.555,390.662,444.411,390.519z M447.383,387.041c0,0.47,0.484,0.94,1.452,1.41
		c0.548-0.476,0.822-1.01,0.822-1.602c0-0.471-0.073-0.818-0.221-1.046c-0.146-0.228-0.346-0.341-0.598-0.341
		c-0.251,0-0.516,0.127-0.792,0.378c-0.277,0.252-0.484,0.571-0.623,0.959C447.396,386.895,447.383,386.975,447.383,387.041z
		 M452.022,389.29c0.255,0,0.407-0.033,0.457-0.1c0.237-0.261,0.356-0.554,0.356-0.88c0-0.709-0.661-1.486-1.983-2.332
		c0.027,0.221,0.041,0.418,0.041,0.589c0,0.841-0.266,1.627-0.797,2.357C450.91,389.168,451.553,389.29,452.022,389.29z"/>
	<path style="fill:#FFFFFF;" d="M457.235,389.033c-0.432-0.305-0.647-0.72-0.647-1.246c0-0.525,0.259-1.113,0.776-1.764
		s1.232-1.238,2.146-1.764l-0.232-0.946l1.179-0.614l1.063,4.623c0.111,0.493,0.205,0.825,0.282,0.996
		c0.305,0.664,0.892,0.996,1.76,0.996v1.42c-1.366,0-2.299-0.477-2.797-1.428v0.008c-0.604,0.117-1.141,0.175-1.61,0.175
		C458.307,389.489,457.667,389.337,457.235,389.033z M457.85,387.563c0,0.171,0.104,0.304,0.312,0.398
		c0.207,0.095,0.476,0.142,0.805,0.142c0.33,0,0.799-0.051,1.407-0.15l-0.539-2.232C458.511,386.506,457.85,387.121,457.85,387.563z
		"/>
	<path style="fill:#FFFFFF;" d="M462.847,390.029c0.012-0.184,0.088-0.348,0.229-0.494c0.142-0.146,0.3-0.221,0.478-0.221h2.308
		c1.013,0,1.519-0.428,1.519-1.286c0-0.232-0.041-0.518-0.124-0.854c-0.083-0.338-0.155-0.59-0.216-0.756
		c-0.062-0.166-0.161-0.432-0.299-0.797l1.303-0.539c0.443,1.145,0.664,2.154,0.664,3.029c0,1.748-0.949,2.623-2.847,2.623h-2.308
		c-0.178,0-0.339-0.072-0.485-0.216C462.92,390.375,462.847,390.211,462.847,390.029z M464.748,382.251
		c-0.05-0.05-0.075-0.119-0.075-0.208s0.025-0.158,0.075-0.208l0.771-0.772c0.05-0.05,0.116-0.075,0.199-0.075
		s0.149,0.025,0.199,0.075l0.797,0.772c0.05,0.05,0.075,0.119,0.075,0.208s-0.025,0.158-0.075,0.208l-0.797,0.78
		c-0.05,0.05-0.116,0.075-0.199,0.075s-0.149-0.025-0.199-0.075L464.748,382.251z"/>
	<path style="fill:#FFFFFF;" d="M471.181,387.986v-8.583h1.278v8.301c0,0.564,0.142,0.974,0.424,1.229
		c0.282,0.254,0.617,0.381,1.004,0.381v1.42c-0.409,0-0.774-0.053-1.096-0.158c-0.32-0.104-0.581-0.244-0.78-0.419
		c-0.199-0.174-0.362-0.383-0.489-0.626C471.294,389.1,471.181,388.584,471.181,387.986z"/>
	<path style="fill:#FFFFFF;" d="M473.389,390.519c-0.144-0.144-0.216-0.308-0.216-0.489c0-0.184,0.072-0.348,0.216-0.494
		c0.145-0.146,0.308-0.221,0.49-0.221h1.428c0.492,0,0.89-0.12,1.191-0.36c0.301-0.241,0.496-0.55,0.585-0.926l0.406-1.743
		l1.262,0.299l-0.539,2.142c0.608,0.394,1.2,0.589,1.776,0.589c0.382,0,0.71-0.104,0.983-0.314c0.274-0.211,0.464-0.535,0.568-0.972
		l0.332-1.444l1.254,0.307l-0.432,1.802c0.481,0.415,1.037,0.622,1.668,0.622c0.477,0,0.855-0.091,1.138-0.273
		s0.423-0.445,0.423-0.789c0-0.343-0.048-0.685-0.145-1.024c-0.098-0.341-0.273-0.856-0.527-1.548l1.303-0.557
		c0.244,0.709,0.414,1.282,0.511,1.723c0.097,0.439,0.146,0.887,0.146,1.34c0,0.853-0.252,1.49-0.756,1.914
		c-0.503,0.423-1.2,0.635-2.092,0.635c-0.465,0-0.918-0.08-1.361-0.24c-0.442-0.161-0.783-0.36-1.021-0.598
		c-0.543,0.559-1.24,0.838-2.092,0.838c-0.438,0-0.863-0.074-1.278-0.225c-0.415-0.148-0.77-0.361-1.063-0.639
		c-0.554,0.576-1.262,0.863-2.125,0.863h-1.544C473.696,390.734,473.533,390.662,473.389,390.519z"/>
	<path style="fill:#FFFFFF;" d="M493.651,392.602c0.266-0.31,0.398-0.646,0.398-1.012s-0.023-0.766-0.07-1.2
		c-0.048-0.435-0.159-0.978-0.337-1.631c-0.177-0.653-0.409-1.209-0.697-1.669l1.112-0.871c0.593,1.008,0.96,2.07,1.104,3.188
		c0.071,0.531,0.116,0.939,0.133,1.225s0.024,0.637,0.024,1.054c0,0.418-0.087,0.813-0.261,1.183
		c-0.175,0.371-0.411,0.687-0.71,0.947c-0.299,0.26-0.676,0.494-1.129,0.705c-0.809,0.371-1.835,0.661-3.08,0.871l-0.456-1.344
		c1.09-0.122,2.053-0.354,2.889-0.697C493.025,393.161,493.386,392.912,493.651,392.602z"/>
	<path style="fill:#FFFFFF;" d="M505.712,390.41c-0.569,0.217-1.132,0.324-1.685,0.324c-0.554,0-1.01-0.125-1.37-0.373
		c-0.681-0.465-1.021-1.195-1.021-2.191c0-0.516,0.097-1.005,0.29-1.47c0.194-0.465,0.49-0.854,0.889-1.166
		c0.398-0.313,0.857-0.47,1.378-0.47c0.979,0.006,1.694,0.42,2.146,1.241c0.451,0.822,0.682,2.11,0.693,3.864
		c-0.006,0.791-0.266,1.549-0.78,2.274s-1.2,1.349-2.055,1.872c-0.855,0.522-1.819,0.934-2.893,1.232l-0.324-1.361
		c1.046-0.277,2.042-0.742,2.988-1.395c0.471-0.32,0.865-0.69,1.183-1.108C505.47,391.268,505.657,390.842,505.712,390.41z
		 M503.251,386.97c-0.229,0.313-0.345,0.659-0.345,1.038s0.104,0.689,0.312,0.934c0.207,0.244,0.519,0.365,0.934,0.365h0.1
		c0.305,0,0.595-0.037,0.872-0.112c0.276-0.074,0.465-0.165,0.564-0.27l0.066,0.282c-0.089-1.805-0.626-2.706-1.61-2.706
		C503.778,386.501,503.48,386.657,503.251,386.97z"/>
	<path style="fill:#FFFFFF;" d="M522.189,392.743l-0.017,0.033c-0.526,0.675-1.283,1.215-2.271,1.618
		c-0.988,0.404-1.996,0.606-3.025,0.606c-0.936,0-1.746-0.166-2.433-0.498c-0.747-0.37-1.259-0.896-1.535-1.577
		c-0.149-0.371-0.225-0.78-0.225-1.229c0-1.112,0.454-2.424,1.361-3.935l0.889,0.564c-0.62,1.146-0.93,2.142-0.93,2.988
		c0,0.526,0.131,0.962,0.394,1.308c0.264,0.346,0.598,0.589,1.005,0.73c0.406,0.141,0.879,0.211,1.415,0.211
		c0.88,0,1.762-0.176,2.644-0.526c0.883-0.352,1.499-0.779,1.848-1.282c0.038-0.072,0.058-0.156,0.058-0.254
		c0-0.097-0.05-0.199-0.149-0.307c-0.1-0.108-0.259-0.216-0.478-0.324c-0.218-0.107-0.405-0.193-0.56-0.257
		c-0.155-0.063-0.392-0.152-0.71-0.266c-0.318-0.114-0.521-0.187-0.61-0.22c-0.21-0.084-0.38-0.225-0.511-0.424
		c-0.13-0.199-0.194-0.468-0.194-0.805c0-0.338,0.133-0.742,0.398-1.213c0.437-0.791,0.928-1.426,1.473-1.904
		c0.546-0.479,1.092-0.719,1.64-0.719c0.908,0,1.674,0.648,2.3,1.943l-0.972,0.779c-0.287-0.447-0.545-0.77-0.771-0.967
		c-0.228-0.196-0.451-0.295-0.673-0.295c-0.221,0-0.453,0.095-0.697,0.283c-0.243,0.188-0.536,0.463-0.88,0.825
		c-0.343,0.362-0.515,0.646-0.515,0.851c0,0.095,0.033,0.176,0.1,0.245s0.13,0.118,0.191,0.146c0.061,0.027,0.146,0.061,0.257,0.1
		c0.797,0.282,1.342,0.504,1.636,0.664c0.802,0.432,1.203,0.951,1.203,1.561C522.845,391.647,522.626,392.162,522.189,392.743z"/>
	<path style="fill:#FFFFFF;" d="M530.05,392.602c0.266-0.31,0.398-0.646,0.398-1.012s-0.023-0.766-0.07-1.2
		s-0.159-0.978-0.336-1.631c-0.178-0.653-0.41-1.209-0.697-1.669l1.112-0.871c0.592,1.008,0.96,2.07,1.104,3.188
		c0.072,0.531,0.116,0.939,0.133,1.225s0.025,0.637,0.025,1.054c0,0.418-0.088,0.813-0.262,1.183
		c-0.175,0.371-0.411,0.687-0.71,0.947c-0.299,0.26-0.675,0.494-1.129,0.705c-0.808,0.371-1.834,0.661-3.079,0.871l-0.457-1.344
		c1.091-0.122,2.054-0.354,2.889-0.697C529.425,393.161,529.784,392.912,530.05,392.602z M529.793,384.036
		c0-0.088,0.024-0.158,0.074-0.208l0.772-0.772c0.05-0.05,0.116-0.075,0.199-0.075s0.149,0.025,0.199,0.075l0.797,0.772
		c0.05,0.05,0.074,0.119,0.074,0.208s-0.024,0.158-0.074,0.208l-0.797,0.78c-0.05,0.05-0.116,0.074-0.199,0.074
		s-0.149-0.024-0.199-0.074l-0.772-0.78C529.817,384.193,529.793,384.124,529.793,384.036z"/>
	<path style="fill:#FFFFFF;" d="M533.844,387.986v-8.583h1.278v8.301c0,0.564,0.141,0.974,0.423,1.229
		c0.282,0.254,0.617,0.381,1.005,0.381v1.42c-0.41,0-0.775-0.053-1.096-0.158c-0.321-0.104-0.581-0.244-0.78-0.419
		c-0.199-0.174-0.362-0.383-0.49-0.626C533.957,389.1,533.844,388.584,533.844,387.986z"/>
	<path style="fill:#FFFFFF;" d="M536.056,390.519c-0.146-0.144-0.22-0.308-0.22-0.489c0-0.184,0.07-0.348,0.211-0.494
		c0.142-0.146,0.301-0.221,0.478-0.221h1.785c0.343,0,0.685-0.034,1.024-0.104c0.341-0.068,0.639-0.148,0.893-0.236
		c0.255-0.088,0.545-0.217,0.872-0.386c0.326-0.169,0.585-0.313,0.775-0.432c0.191-0.119,0.453-0.285,0.785-0.498
		c0.332-0.214,0.578-0.37,0.738-0.47c-0.437-0.133-0.907-0.311-1.411-0.535c-0.503-0.224-0.921-0.402-1.253-0.535
		s-0.611-0.199-0.839-0.199c-0.382,0-0.885,0.373-1.511,1.121l-0.838-0.715c0.548-0.664,0.93-1.092,1.146-1.286
		c0.415-0.371,0.854-0.556,1.319-0.556c0.305,0,0.683,0.09,1.133,0.27c0.451,0.18,0.888,0.376,1.308,0.589
		c0.421,0.214,0.945,0.409,1.573,0.59c0.628,0.18,1.246,0.27,1.855,0.27h1.146l-0.299,1.419h-0.548c-0.266,0-0.578,0.051-0.938,0.15
		c0.122,0.525,0.394,0.914,0.813,1.166c0.421,0.252,1.024,0.377,1.81,0.377v1.42c-1.156,0-2.013-0.196-2.569-0.59
		c-0.556-0.393-0.908-1.031-1.058-1.917c-0.238,0.133-0.558,0.332-0.959,0.598s-0.76,0.494-1.075,0.685
		c-0.315,0.191-0.681,0.389-1.096,0.594s-0.859,0.361-1.332,0.469c-0.474,0.108-0.962,0.162-1.465,0.162h-1.769
		C536.364,390.734,536.202,390.662,536.056,390.519z M538.924,392.876l0.771-0.78c0.05-0.05,0.116-0.074,0.199-0.074
		s0.149,0.024,0.199,0.074l0.797,0.78c0.05,0.05,0.075,0.112,0.075,0.187c0,0.075-0.025,0.143-0.075,0.203l-0.797,0.764
		c-0.05,0.062-0.116,0.092-0.199,0.092s-0.149-0.03-0.199-0.092l-0.771-0.764c-0.05-0.061-0.075-0.128-0.075-0.203
		C538.849,392.988,538.874,392.926,538.924,392.876z"/>
	<path style="fill:#FFFFFF;" d="M547.689,390.734c-0.166,0-0.298-0.07-0.395-0.212c-0.097-0.141-0.146-0.306-0.146-0.493
		c0-0.188,0.049-0.354,0.146-0.498c0.097-0.145,0.229-0.217,0.395-0.217h3.494v1.42H547.689z"/>
	<path style="fill:#FFFFFF;" d="M550.479,390.037c0-0.193,0.069-0.362,0.207-0.506c0.139-0.145,0.299-0.217,0.481-0.217h0.274
		c0.249,0,0.481-0.023,0.697-0.07s0.402-0.106,0.56-0.178c0.158-0.072,0.309-0.17,0.453-0.291c0.144-0.121,0.263-0.239,0.356-0.353
		c0.095-0.114,0.191-0.257,0.291-0.428s0.18-0.319,0.24-0.444c0.062-0.124,0.136-0.281,0.225-0.469
		c0.017-0.033,0.027-0.059,0.033-0.074c0.271-0.598,0.582-1.039,0.934-1.324s0.718-0.428,1.1-0.428c0.465,0,0.916,0.184,1.354,0.552
		c0.437,0.368,0.79,0.845,1.058,1.428c0.269,0.584,0.403,1.178,0.403,1.78c0,1.334-0.581,2.001-1.743,2.001
		c-0.266,0-0.578-0.038-0.938-0.116c-0.359-0.078-0.644-0.149-0.851-0.216c-0.208-0.066-0.544-0.183-1.009-0.349
		s-0.73-0.26-0.797-0.282c-0.542,0.454-1.303,0.681-2.282,0.681h-0.357c-0.171,0-0.329-0.072-0.473-0.216
		C550.55,390.375,550.479,390.215,550.479,390.037z M554.712,388.925c0.017,0.005,0.103,0.037,0.257,0.096
		c0.155,0.058,0.252,0.094,0.291,0.107c0.038,0.015,0.13,0.048,0.273,0.1c0.145,0.053,0.246,0.087,0.308,0.104
		c0.061,0.016,0.153,0.044,0.277,0.082c0.125,0.039,0.225,0.066,0.299,0.084c0.075,0.016,0.162,0.035,0.262,0.058
		s0.189,0.037,0.27,0.046c0.081,0.008,0.157,0.012,0.229,0.012c0.443,0,0.664-0.18,0.664-0.539c0-0.199-0.077-0.481-0.232-0.847
		c-0.154-0.365-0.363-0.706-0.627-1.021c-0.263-0.316-0.513-0.477-0.751-0.482c-0.232,0-0.489,0.27-0.771,0.806
		c-0.083,0.149-0.206,0.382-0.37,0.697C554.926,388.543,554.8,388.775,554.712,388.925z"/>
	<path style="fill:#FFFFFF;" d="M574.658,392.743l-0.017,0.033c-0.525,0.675-1.282,1.215-2.27,1.618
		c-0.988,0.404-1.997,0.606-3.026,0.606c-0.935,0-1.746-0.166-2.432-0.498c-0.747-0.37-1.259-0.896-1.536-1.577
		c-0.149-0.371-0.224-0.78-0.224-1.229c0-1.112,0.453-2.424,1.361-3.935l0.888,0.564c-0.619,1.146-0.93,2.142-0.93,2.988
		c0,0.526,0.132,0.962,0.395,1.308s0.598,0.589,1.005,0.73c0.406,0.141,0.878,0.211,1.415,0.211c0.88,0,1.761-0.176,2.644-0.526
		c0.883-0.352,1.498-0.779,1.847-1.282c0.039-0.072,0.059-0.156,0.059-0.254c0-0.097-0.05-0.199-0.149-0.307
		c-0.1-0.108-0.259-0.216-0.478-0.324c-0.219-0.107-0.405-0.193-0.561-0.257c-0.154-0.063-0.392-0.152-0.709-0.266
		c-0.318-0.114-0.522-0.187-0.61-0.22c-0.211-0.084-0.381-0.225-0.511-0.424s-0.195-0.468-0.195-0.805
		c0-0.338,0.133-0.742,0.398-1.213c0.438-0.791,0.929-1.426,1.474-1.904s1.092-0.719,1.64-0.719c0.907,0,1.674,0.648,2.299,1.943
		l-0.971,0.779c-0.288-0.447-0.545-0.77-0.772-0.967c-0.227-0.196-0.451-0.295-0.672-0.295c-0.222,0-0.454,0.095-0.697,0.283
		c-0.244,0.188-0.537,0.463-0.88,0.825c-0.344,0.362-0.515,0.646-0.515,0.851c0,0.095,0.033,0.176,0.1,0.245s0.13,0.118,0.19,0.146
		c0.062,0.027,0.146,0.061,0.258,0.1c0.797,0.282,1.342,0.504,1.635,0.664c0.803,0.432,1.204,0.951,1.204,1.561
		C575.314,391.647,575.096,392.162,574.658,392.743z"/>
	<path style="fill:#FFFFFF;" d="M578.552,387.986v-8.583h1.278v8.301c0,0.564,0.141,0.974,0.423,1.229
		c0.282,0.254,0.617,0.381,1.005,0.381v1.42c-0.41,0-0.775-0.053-1.096-0.158c-0.321-0.104-0.581-0.244-0.78-0.419
		c-0.199-0.174-0.362-0.383-0.49-0.626C578.665,389.1,578.552,388.584,578.552,387.986z"/>
	<path style="fill:#FFFFFF;" d="M581.083,390.734c-0.166,0-0.297-0.07-0.395-0.212c-0.097-0.141-0.145-0.306-0.145-0.493
		c0-0.188,0.048-0.354,0.145-0.498c0.098-0.145,0.229-0.217,0.395-0.217h3.495v1.42H581.083z"/>
	<path style="fill:#FFFFFF;" d="M584.088,390.519c-0.144-0.144-0.216-0.309-0.216-0.494c0-0.185,0.069-0.35,0.208-0.493
		c0.138-0.145,0.299-0.217,0.481-0.217h1.436c0.36,0,0.7-0.041,1.021-0.124c-0.775-0.564-1.162-1.22-1.162-1.968
		c0-0.669,0.266-1.324,0.797-1.967c0.276-0.327,0.581-0.601,0.913-0.822c-0.271-0.116-0.44-0.188-0.507-0.216l0.44-1.328
		c0.818,0.337,1.598,0.689,2.337,1.054c0.738,0.365,1.29,0.682,1.655,0.95c0.365,0.269,0.742,0.577,1.129,0.926
		c0.775,0.697,1.162,1.486,1.162,2.365c0,0.759-0.329,1.536-0.987,2.333c-0.105,0.133-0.394,0.199-0.863,0.199
		c-0.471,0-1.002-0.057-1.594-0.17c-0.593-0.114-1.168-0.278-1.727-0.494c-0.703,0.454-1.447,0.681-2.233,0.681h-1.817
		C584.39,390.734,584.232,390.662,584.088,390.519z M587.06,387.041c0,0.47,0.484,0.94,1.453,1.41
		c0.548-0.476,0.821-1.01,0.821-1.602c0-0.471-0.073-0.818-0.22-1.046s-0.346-0.341-0.598-0.341s-0.516,0.127-0.793,0.378
		c-0.276,0.252-0.484,0.571-0.622,0.959C587.073,386.895,587.06,386.975,587.06,387.041z M591.7,389.29
		c0.254,0,0.406-0.033,0.456-0.1c0.238-0.261,0.357-0.554,0.357-0.88c0-0.709-0.661-1.486-1.984-2.332
		c0.028,0.221,0.042,0.418,0.042,0.589c0,0.841-0.266,1.627-0.797,2.357C590.588,389.168,591.229,389.29,591.7,389.29z"/>
	<path style="fill:#FFFFFF;" d="M608.352,389.332l0.506-0.018v1.42c-0.503,0-0.885-0.006-1.146-0.017
		c-0.26-0.011-0.579-0.053-0.958-0.124c-0.38-0.072-0.727-0.18-1.042-0.324c-0.543,0.311-1.221,0.465-2.034,0.465h-4.523
		c-0.93,0-1.893-0.249-2.889-0.747l0.581-1.304c0.453,0.261,0.94,0.438,1.461,0.531c0.415-0.498,0.764-0.901,1.046-1.211v-8.6h1.278
		v7.321c1.378-1.295,2.515-2.003,3.411-2.125c0.128-0.017,0.255-0.025,0.382-0.025c0.764,0,1.418,0.288,1.964,0.863
		c0.545,0.575,0.817,1.271,0.817,2.083c0,0.648-0.152,1.218-0.457,1.711C607.104,389.299,607.638,389.332,608.352,389.332z
		 M603.263,389.314c0.609,0,1.136-0.09,1.582-0.27c0.445-0.18,0.781-0.366,1.008-0.561c0.05-0.171,0.075-0.31,0.075-0.414
		c0-0.454-0.172-0.865-0.515-1.233c-0.344-0.368-0.759-0.552-1.245-0.552c-0.365,0-0.764,0.098-1.195,0.295
		c-0.432,0.196-0.858,0.463-1.278,0.801c-0.747,0.598-1.428,1.242-2.042,1.934H603.263z"/>
	<path style="fill:#FFFFFF;" d="M608.152,390.037c0-0.193,0.069-0.362,0.207-0.506c0.139-0.145,0.299-0.217,0.481-0.217h2.067
		c0.614,0,1.07-0.139,1.369-0.419c0.299-0.279,0.448-0.704,0.448-1.274v-1.436h1.262v1.436c0,0.554,0.159,0.975,0.478,1.262
		c0.318,0.288,0.763,0.432,1.332,0.432h0.216v1.42h-0.323c-0.664,0-1.19-0.106-1.577-0.319c-0.388-0.214-0.643-0.48-0.764-0.802
		c-0.111,0.327-0.345,0.596-0.702,0.806c-0.356,0.21-0.855,0.315-1.498,0.315h-2.308c-0.171,0-0.329-0.072-0.473-0.216
		C608.224,390.375,608.152,390.215,608.152,390.037z M608.857,392.843l0.723-0.739c0.05-0.049,0.11-0.074,0.183-0.074
		c0.071,0,0.133,0.025,0.183,0.074l0.738,0.739c0.05,0.05,0.075,0.11,0.075,0.183s-0.025,0.133-0.075,0.183l-0.738,0.739
		c-0.05,0.049-0.111,0.074-0.183,0.074c-0.072,0-0.133-0.025-0.183-0.074l-0.723-0.739c-0.05-0.05-0.074-0.11-0.074-0.183
		S608.808,392.893,608.857,392.843z M610.982,392.843l0.723-0.739c0.05-0.049,0.11-0.074,0.183-0.074
		c0.071,0,0.133,0.025,0.183,0.074l0.738,0.739c0.05,0.05,0.075,0.11,0.075,0.183s-0.025,0.133-0.075,0.183l-0.738,0.739
		c-0.05,0.049-0.111,0.074-0.183,0.074c-0.072,0-0.133-0.025-0.183-0.074l-0.723-0.739c-0.05-0.05-0.074-0.11-0.074-0.183
		S610.933,392.893,610.982,392.843z"/>
	<path style="fill:#FFFFFF;" d="M615.52,390.519c-0.147-0.144-0.221-0.308-0.221-0.489c0-0.184,0.071-0.348,0.212-0.494
		c0.142-0.146,0.3-0.221,0.478-0.221h1.784c1.141,0,2.327-0.385,3.562-1.153c0.193-0.122,0.456-0.289,0.788-0.502
		c0.332-0.214,0.579-0.37,0.739-0.47c-0.438-0.133-0.907-0.311-1.411-0.535c-0.504-0.224-0.922-0.402-1.254-0.535
		c-0.331-0.133-0.611-0.199-0.838-0.199c-0.382,0-0.886,0.373-1.511,1.121l-0.839-0.715c0.548-0.664,0.93-1.092,1.146-1.286
		c0.415-0.371,0.855-0.556,1.32-0.556c0.498,0,1.312,0.285,2.44,0.855c0.421,0.216,0.945,0.413,1.573,0.594
		c0.628,0.18,1.246,0.27,1.854,0.27h1.146l-0.299,1.419h-0.549c-0.266,0-0.578,0.051-0.938,0.15
		c0.122,0.525,0.393,0.914,0.813,1.166s1.023,0.377,1.81,0.377v1.42c-1.156,0-2.013-0.196-2.569-0.59
		c-0.556-0.393-0.909-1.031-1.058-1.917c-0.238,0.133-0.558,0.332-0.959,0.598s-0.76,0.494-1.075,0.685
		c-0.315,0.191-0.681,0.389-1.096,0.594c-0.853,0.42-1.785,0.631-2.798,0.631h-1.768
		C615.827,390.734,615.666,390.662,615.52,390.519z"/>
	<path style="fill:#FFFFFF;" d="M627.152,390.734c-0.166,0-0.298-0.07-0.395-0.212c-0.097-0.141-0.145-0.306-0.145-0.493
		c0-0.188,0.048-0.354,0.145-0.498c0.097-0.145,0.229-0.217,0.395-0.217h3.494v1.42H627.152z"/>
	<path style="fill:#FFFFFF;" d="M629.942,390.037c0-0.193,0.068-0.362,0.207-0.506c0.139-0.145,0.299-0.217,0.481-0.217h0.274
		c0.248,0,0.48-0.023,0.697-0.07c0.215-0.047,0.402-0.106,0.56-0.178c0.158-0.072,0.309-0.17,0.452-0.291
		c0.145-0.121,0.264-0.239,0.357-0.353c0.094-0.114,0.191-0.257,0.291-0.428s0.18-0.319,0.24-0.444
		c0.061-0.124,0.136-0.281,0.225-0.469c0.016-0.033,0.027-0.059,0.033-0.074c0.271-0.598,0.582-1.039,0.934-1.324
		s0.718-0.428,1.1-0.428c0.465,0,0.916,0.184,1.354,0.552c0.437,0.368,0.789,0.845,1.058,1.428c0.269,0.584,0.403,1.178,0.403,1.78
		c0,1.334-0.582,2.001-1.744,2.001c-0.266,0-0.578-0.038-0.938-0.116s-0.644-0.149-0.851-0.216
		c-0.208-0.066-0.544-0.183-1.009-0.349s-0.73-0.26-0.797-0.282c-0.542,0.454-1.303,0.681-2.283,0.681h-0.356
		c-0.172,0-0.329-0.072-0.474-0.216C630.014,390.375,629.942,390.215,629.942,390.037z M634.175,388.925
		c0.018,0.005,0.103,0.037,0.258,0.096c0.155,0.058,0.252,0.094,0.291,0.107c0.038,0.015,0.13,0.048,0.273,0.1
		c0.144,0.053,0.246,0.087,0.307,0.104c0.062,0.016,0.154,0.044,0.278,0.082c0.125,0.039,0.225,0.066,0.299,0.084
		c0.075,0.016,0.162,0.035,0.262,0.058s0.189,0.037,0.27,0.046c0.08,0.008,0.156,0.012,0.229,0.012c0.442,0,0.664-0.18,0.664-0.539
		c0-0.199-0.077-0.481-0.232-0.847s-0.364-0.706-0.627-1.021c-0.263-0.316-0.513-0.477-0.751-0.482c-0.232,0-0.49,0.27-0.771,0.806
		c-0.084,0.149-0.207,0.382-0.37,0.697S634.264,388.775,634.175,388.925z"/>
	<path style="fill:#FFFFFF;" d="M648.585,392.602c0.266-0.31,0.398-0.646,0.398-1.012s-0.023-0.766-0.07-1.2
		s-0.159-0.978-0.337-1.631c-0.177-0.653-0.409-1.209-0.697-1.669l1.113-0.871c0.592,1.008,0.96,2.07,1.104,3.188
		c0.072,0.531,0.116,0.939,0.133,1.225s0.025,0.637,0.025,1.054c0,0.418-0.088,0.813-0.262,1.183
		c-0.175,0.371-0.411,0.687-0.71,0.947c-0.299,0.26-0.675,0.494-1.129,0.705c-0.808,0.371-1.835,0.661-3.079,0.871l-0.457-1.344
		c1.09-0.122,2.053-0.354,2.889-0.697C647.96,393.161,648.319,392.912,648.585,392.602z"/>
	<path style="fill:#FFFFFF;" d="M655.284,389.273c1.019,0,1.787-0.302,2.308-0.904c-0.1-1.129-0.883-2.499-2.35-4.109l1.029-0.938
		c0.576,0.598,1.127,1.309,1.652,2.133c0.288,0.453,0.518,0.942,0.689,1.465c0.171,0.523,0.257,1.031,0.257,1.523
		c0,0.211-0.13,0.504-0.39,0.88c-0.062,0.089-0.098,0.144-0.108,0.166c-0.847,0.83-1.87,1.245-3.071,1.245
		c-0.969,0-1.942-0.254-2.922-0.764l0.581-1.287C653.63,389.077,654.404,389.273,655.284,389.273z"/>
</g>
<g>
	<path style="fill:#FFFFFF;" d="M467.928,106.124c17.602-17.856,31.507-38.618,42.94-61.563c0.025,0.333,0.056,0.56,0.056,0.787
		c0.002,20.187-0.002,40.374,0.019,60.562c0.001,0.696-0.237,0.934-0.796,1.134c-2.106,0.753-3.382,2.281-3.562,4.734
		c-0.18,2.455,0.611,4.35,2.6,5.724c1.363,0.941,2.774,1.154,4.207,0.645c2.348-0.833,3.895-2.737,3.788-5.953
		c-0.099-2.967-1.489-4.685-4.161-5.4c-0.173-0.046-0.341-0.315-0.418-0.52c-0.071-0.189-0.017-0.433-0.017-0.654
		c0-5.693,0.268-11.386,0.257-17.079C512.811,74.185,513,59.83,513,45.475c0-0.267,0-0.534,0-0.979c1,2.132,1.977,4.108,3.074,6.064
		c1.385,2.469,2.615,4.958,4.074,7.375c3.141,5.2,6.155,10.452,9.482,15.511c3.297,5.013,6.812,9.836,10.295,14.704
		c3.839,5.366,8.212,10.176,12.89,14.685c1.073,1.034,2.127,2.082,3.217,3.146c-2.793,3.264-4.593,7.179-6.11,11.24
		c-1.992,5.33-3.59,10.803-4.887,16.384c-2.314,9.959-3.951,20.05-5.195,30.221c-0.37,3.025-0.71,6.054-1.051,9.082
		c-0.045,0.4-0.114,0.663-0.576,0.662c-6.161-0.014-12.322-0.012-18.483-0.018c-0.07,0-0.14-0.046-0.284-0.097
		c0.103-0.263,0.205-0.505,0.293-0.753c1.216-3.437,2.606-6.818,3.6-10.329c1.149-4.056,1.745-8.272,1.545-12.536
		c-0.269-5.736-1.754-11.047-5.3-15.484c-1.887-2.362-4.214-3.881-7.182-4.183c-1.774-0.18-3.08,0.625-4.16,1.946
		c-3.286,4.02-5.578,8.708-7.585,13.563c-0.829,2.004-1.56,4.062-2.22,6.138c-1.364,4.288,0.991,8.419,5.134,9.123
		c1.929,0.328,3.794,0.172,5.58-0.774c0.936-0.496,1.793-0.307,2.636,0.796c1.044,1.367,1.968,2.847,2.88,4.324
		c0.639,1.035,0.54,2.131-0.025,3.2c-1.028,1.945-2.517,3.444-4.063,4.881c-0.181,0.168-0.521,0.188-0.787,0.189
		c-8.045,0.009-16.09,0.002-24.134,0.021c-0.561,0.001-0.737-0.199-0.799-0.78c-0.914-8.578-1.999-17.131-3.644-25.584
		c-0.92-4.73-1.981-9.43-3.033-14.129c-1.138-5.084-2.749-10.006-4.486-14.884C472.184,113.952,470.368,109.882,467.928,106.124z"/>
	<path style="fill:#FFFFFF;" d="M478,215c0,0,0-0.572,0-0.866c0-6.628-0.042-13.257-0.04-19.885c0.001-2.218,0.867-3.25,2.896-3.25
		c20.722,0,41.462,0,62.184,0c2,0,2.979,1.032,2.98,3.168c0.004,6.683,0.006,13.339,0.004,20.021c0,0.267-0.019,0.811-0.034,0.811
		C523.297,215,501,215,478,215z"/>
	<path style="fill:#FFFFFF;" d="M561.711,97.264c-1.462,2.18-2.832,4.223-4.276,6.375c-0.28-0.264-0.553-0.549-0.853-0.797
		c-4.82-3.986-8.955-8.733-12.796-13.766c-3.347-4.386-6.609-8.861-9.691-13.466c-3.411-5.097-6.676-10.316-9.813-15.614
		c-2.767-4.672-5.297-9.51-7.879-14.308c-1.034-1.921-1.945-3.92-2.87-5.907c-0.234-0.503-0.518-0.638-1.008-0.635
		c-1.802,0.014-1.801-0.003-2.575,1.738c-2.736,6.152-5.822,12.097-9.282,17.803c-3.023,4.985-6.065,9.969-9.332,14.767
		c-3.403,4.997-7.067,9.789-10.652,14.639c-3.77,5.1-8.007,9.726-12.451,14.136c-0.44,0.436-0.871,0.883-1.348,1.368
		c-1.547-2.008-3.069-3.984-4.596-5.966c1.498-1.31,2.951-2.507,4.327-3.802c1.611-1.516,3.266-3.005,4.705-4.701
		c4.089-4.817,8.206-9.618,12.066-14.646c3.389-4.415,6.557-9.044,9.618-13.735c3.252-4.983,6.368-10.079,9.347-15.258
		c2.71-4.712,5.21-9.569,7.676-14.437c0.552-1.089,1.078-1.423,2.177-1.424c0.971,0,1.257,0.507,1.663,1.269
		c1.779,3.334,3.571,6.664,5.476,9.915c3.577,6.105,7.125,12.236,10.896,18.201c2.908,4.601,6.108,8.989,9.231,13.429
		c3.963,5.634,8.413,10.807,13.111,15.726c2.899,3.035,5.905,5.951,8.866,8.917C561.521,97.16,561.62,97.204,561.711,97.264z"/>
	<path style="fill:#FFFFFF;" d="M479.692,189c0.069-2,0.91-2.568,2.184-2.712c0.177-0.02,0.356-0.102,0.534-0.102
		c19.754-0.001,39.508,0.13,59.261,0.132c1.672,0,2.612,0.683,2.736,2.683C522.834,189,501.264,189,479.692,189z"/>
	<path style="fill:#FFFFFF;" d="M482.502,180c0.068-2,0.954-2.941,2.346-2.941c18.141-0.005,36.282,0.194,54.423,0.2
		c1.343,0,2.16,0.741,2.339,2.741C521.903,180,502.203,180,482.502,180z"/>
	<path style="fill:#FFFFFF;" d="M481.08,184c0.185-2,1.018-2.55,2.458-2.551c19.007-0.004,38.014,0.019,57.021,0.023
		c1.434,0,2.267,0.528,2.456,2.528C522.386,184,501.764,184,481.08,184z"/>
</g>
</svg>
